<svg width="12" height="12" viewBox="0 0 12 12" fill="none" xmlns="http://www.w3.org/2000/svg">
<g clip-path="url(#clip0)">
<path d="M7.35234 10.0488H4.65234C4.65234 10.7913 5.25984 11.3988 6.00234 11.3988C6.74484 11.3988 7.35234 10.7913 7.35234 10.0488Z" fill="white"/>
<path d="M10.7266 8.02461H10.3891C9.91656 7.55211 9.37656 6.87711 9.37656 5.99961V3.97461C9.37656 2.08461 7.89156 0.599609 6.00156 0.599609C4.11156 0.599609 2.62656 2.08461 2.62656 3.97461V5.99961C2.62656 6.87711 2.08656 7.55211 1.61406 8.02461H1.27656C0.871562 8.02461 0.601562 8.29461 0.601562 8.69961C0.601562 9.10461 0.871562 9.37461 1.27656 9.37461H10.7266C11.1316 9.37461 11.4016 9.10461 11.4016 8.69961C11.4016 8.29461 11.1316 8.02461 10.7266 8.02461Z" fill="white"/>
</g>
<defs>
<clipPath id="clip0">
<rect width="10.8" height="10.8" fill="white" transform="translate(0.601562 0.599609)"/>
</clipPath>
</defs>
</svg>
