<svg width="454" height="241" viewBox="0 0 454 241" fill="none" xmlns="http://www.w3.org/2000/svg">
<mask id="mask0" mask-type="alpha" maskUnits="userSpaceOnUse" x="0" y="0" width="454" height="241">
<path d="M434.367 241H19.4978C8.66567 241 0 232.587 0 222.362V18.638C0 8.28357 8.80107 0 19.4978 0H434.502C445.334 0 454 8.413 454 18.638V222.362C454 232.716 445.199 241 434.367 241Z" fill="black"/>
</mask>
<g mask="url(#mask0)">
<rect width="454" height="241" rx="5" fill="black"/>
<path opacity="0.1" d="M14.4882 -134.478C10.4262 -138.103 4.46851 -138.879 -0.405925 -136.42C-19.4975 -126.842 -44.2759 -99.2733 -51.8584 -71.3163C-77.9908 -81.5413 -111.57 -81.4119 -129.985 -74.6815C-135.13 -72.8695 -138.515 -67.9511 -138.38 -62.7739L-137.973 -51.5134L-147.858 -45.5596C-151.784 -43.1004 -154.086 -38.9586 -153.815 -34.4285C-153.815 -33.652 -153.68 -32.8754 -153.409 -32.0988C-148.264 -11.7782 -126.194 18.5086 -99.2488 32.0988C-98.7071 32.3577 -98.1655 32.6166 -97.6239 32.8754C-98.0301 33.3932 -98.3009 33.9109 -98.7071 34.2992C-115.632 58.6321 -119.965 95.3904 -114.278 115.452C-112.789 120.629 -108.185 124.254 -102.634 124.642L-90.9893 125.418L-85.7086 135.385C-83.2714 140.044 -77.8554 142.762 -72.4393 142.115C-52.8062 139.526 -23.2887 124.512 -5.41577 103.545C15.1652 124.771 50.7757 137.585 72.3045 137.326C77.8559 137.197 82.7304 133.831 84.4906 128.784L88.1464 118.17L99.6555 115.841C105.072 114.676 109.134 110.404 109.675 105.098C110.217 100.05 110.081 94.355 109.269 88.0129C108.727 84.13 104.936 81.2825 100.874 81.8002C96.8121 82.3179 93.8332 85.8126 94.3748 89.8249C94.9165 94.355 95.1873 98.6262 94.9165 102.121L83.8136 104.451C79.3453 105.357 75.6895 108.463 74.3355 112.605L70.8151 122.959C52.4005 122.571 21.5291 110.534 5.14552 93.1901C3.5207 91.5075 2.16669 89.6955 0.812676 87.754C-0.541335 85.6832 -2.97855 84.5183 -5.55117 84.5183C-8.12379 84.5183 -10.561 85.8126 -11.915 87.8835L-12.1858 88.2718C-12.3212 88.5306 -12.4566 88.7895 -12.7274 89.0484C-26.2675 108.592 -54.8372 124.771 -73.1163 127.748L-78.2616 118.041C-80.2926 114.158 -84.3546 111.569 -88.9583 111.31L-100.332 110.534C-104.529 93.3196 -99.9258 61.8679 -86.3856 42.3239C-84.49 39.7353 -82.459 37.2761 -80.0218 35.0757C-77.9908 33.2637 -77.3138 30.6751 -77.8554 28.0865C-78.5324 25.6273 -80.5634 23.5564 -83.136 22.9093C-86.3856 22.1327 -89.4999 20.9678 -92.4787 19.4146C-114.143 8.41302 -133.776 -17.2143 -138.786 -34.1697L-129.172 -39.9941C-125.381 -42.3238 -123.079 -46.4656 -123.215 -50.8662L-123.621 -61.7384C-106.154 -67.3039 -72.8455 -66.1391 -51.1813 -55.1375C-50.9105 -55.008 -50.6397 -54.8786 -50.3689 -54.7492L-49.9627 -54.4903C-47.7963 -53.3254 -44.9529 -53.196 -42.7865 -54.3609C-40.4847 -55.5257 -38.9952 -57.7261 -38.8598 -60.1853C-38.7244 -62.515 -38.3182 -64.7153 -37.7766 -66.9157C-31.9544 -89.6955 -10.9672 -114.287 5.14552 -123.089L13.405 -115.582C16.6546 -112.605 21.5291 -111.44 25.8619 -112.734L36.8294 -115.84C45.0888 -103.545 52.1297 -78.5644 49.6925 -56.4318C49.4217 -53.9726 50.5049 -51.6428 52.4005 -50.0897C54.4315 -48.5365 57.0042 -48.1482 59.4414 -48.9248C60.5246 -49.3131 61.4724 -49.5719 62.4202 -49.7014C86.1154 -55.3963 118.747 -49.0542 134.318 -39.7352L131.204 -29.2513C129.985 -25.1095 131.204 -20.45 134.318 -17.3437L142.307 -9.57785C133.235 5.82441 107.78 26.2745 84.0844 31.9694C83.272 32.2283 82.1888 32.3577 81.1056 32.6166C78.6683 33.0049 76.5019 34.6874 75.5541 36.8878C74.6063 39.0881 74.8771 41.6767 76.2311 43.7476C79.4807 48.2777 82.4596 53.4549 85.0322 59.1499C86.657 62.7739 91.1252 64.4565 94.9165 62.7739C98.7077 61.2207 100.468 56.9495 98.7077 53.3255C97.2183 50.0897 95.5935 46.9834 93.9687 44.1359C121.32 35.3346 147.046 12.9431 156.253 -4.27119C158.826 -8.9307 157.878 -14.7551 154.087 -18.5086L145.963 -26.5333L149.077 -37.276C150.566 -42.3238 148.535 -47.7599 143.932 -50.7368C127.142 -61.609 93.427 -69.5043 64.9928 -64.8448C64.9928 -86.7185 58.3582 -111.181 48.2031 -125.159C44.9535 -129.56 39.2666 -131.372 33.986 -129.948L23.0185 -126.842L14.4882 -134.478Z" fill="url(#paint0_linear)"/>
<path opacity="0.1" d="M9.6139 69.2451C10.6971 73.128 14.7591 75.4578 18.6858 74.4223C22.7478 73.3869 25.185 69.504 24.1018 65.7505L18.8212 45.6887C24.508 43.2295 29.3825 39.7349 33.3091 35.3342L51.9945 45.9476C55.5149 48.0185 60.1185 46.8536 62.2849 43.4884C64.4514 40.1232 63.2328 35.7225 59.7123 33.6516L41.1624 23.0383C43.3288 17.7317 44.2766 11.9073 43.735 5.95348L64.7222 0.905684C68.7842 -0.129761 71.2214 -4.01268 70.1382 -7.76617C69.055 -11.6491 64.993 -13.9788 61.0663 -12.9434L39.8083 -7.89561C37.2357 -13.3317 33.5799 -17.9912 28.9763 -21.7447L40.0792 -39.4767C42.2456 -42.8419 41.027 -47.2425 37.5065 -49.3134C33.9861 -51.3843 29.3825 -50.2194 27.2161 -46.8542L16.1132 -28.9928C10.5617 -31.0637 4.46866 -31.9697 -1.75979 -31.5814L-7.04043 -51.6432C-7.98824 -55.5261 -12.1857 -57.8559 -16.1123 -56.8204C-19.6327 -55.9144 -21.9346 -52.8081 -21.7992 -49.5723C-21.7992 -49.0546 -21.6638 -48.6663 -21.5284 -48.1486L-16.2477 -28.0868C-21.7992 -25.6276 -26.6736 -22.133 -30.7356 -17.7323L-49.2856 -28.3457C-52.806 -30.4165 -57.4097 -29.2517 -59.5761 -25.8865C-60.3885 -24.5922 -60.6593 -23.1684 -60.6593 -21.8741C-60.5239 -19.5444 -59.3053 -17.344 -57.0035 -16.0497L-38.4535 -5.43642C-40.4845 -0.259194 -41.4323 5.30633 -41.1615 10.7424C-41.1615 11.0013 -41.1615 11.3896 -41.0261 11.6484L-62.0133 16.8257C-65.5337 17.7317 -67.8355 20.838 -67.7001 24.0738C-67.7001 24.5915 -67.5647 24.9798 -67.4293 25.4975C-66.3461 29.3804 -62.2841 31.7102 -58.3575 30.6747L-37.3703 25.6269C-34.7977 31.063 -31.1418 35.7225 -26.5382 39.476L-37.6411 57.208C-38.4535 58.5023 -38.7243 59.9261 -38.7243 61.2204C-38.5889 63.5501 -37.3703 65.7505 -35.0685 67.0448C-31.548 69.1157 -26.9444 67.9508 -24.778 64.5856L-13.6751 46.8536C-8.12365 48.9245 -2.03059 49.701 4.19786 49.3128L9.6139 69.2451ZM7.98909 34.1694C-6.63423 37.664 -21.5284 29.251 -25.3196 15.2725C-27.0798 8.54209 -25.9966 1.42341 -22.3408 -4.53041C-18.5495 -10.4842 -12.5919 -14.7554 -5.55102 -16.5675C9.0723 -20.0621 24.1018 -11.5197 27.7577 2.45885C28.1639 4.14145 28.4347 5.82405 28.5701 7.63608C29.2471 19.6731 20.8522 31.063 7.98909 34.1694Z" fill="url(#paint1_linear)"/>
<path opacity="0.1" d="M181.709 58.3721C179.407 57.5955 176.699 58.3721 175.209 60.1842L171.96 64.1965L166.679 63.5494C164.242 63.2905 161.805 64.4554 160.721 66.6557C158.69 70.668 157.201 76.6219 156.93 82.964C156.795 84.776 158.284 86.3292 160.18 86.3292C162.075 86.4586 163.7 85.0349 163.7 83.2228C163.971 78.175 165.054 73.2567 166.544 70.0209L171.689 70.668C173.72 70.9269 175.751 70.1503 177.105 68.5972L180.219 64.7142C187.937 67.5617 199.175 77.1396 203.373 86.9763C203.373 87.1057 203.508 87.2352 203.508 87.3646L203.644 87.494C204.05 88.5295 204.998 89.3061 206.081 89.5649C207.164 89.8238 208.383 89.4355 209.195 88.6589C210.007 87.8823 210.82 87.2352 211.632 86.588C220.433 80.2459 235.192 77.5279 243.452 78.9516L244.129 83.87C244.399 85.8114 245.753 87.494 247.514 88.2706L252.253 90.2121C251.44 96.813 246.295 107.426 238.713 114.416C237.9 115.192 237.494 116.228 237.765 117.393C238.036 118.428 238.713 119.334 239.796 119.722C240.337 119.852 240.744 120.111 241.014 120.24C251.034 124.77 260.377 136.031 262.949 143.538L258.752 146.385C257.127 147.55 256.044 149.362 256.315 151.433L256.721 156.351C249.003 159.199 233.973 159.328 223.954 154.669C223.548 154.539 223.141 154.28 222.735 154.021C221.787 153.504 220.569 153.504 219.486 154.021C218.402 154.539 217.725 155.445 217.725 156.61C216.778 166.576 211.361 177.06 206.487 181.849L201.883 179.519C200.123 178.613 197.821 178.743 196.061 179.778L191.728 182.367C185.5 177.19 178.324 164.505 177.917 153.892C177.917 152.857 177.917 151.821 178.053 150.786C178.188 149.621 177.782 148.585 176.834 147.938C175.886 147.291 174.668 147.032 173.585 147.42H173.449C173.314 147.42 173.178 147.55 173.043 147.55C162.482 150.527 147.588 148.326 140.411 144.314L141.63 139.525C142.036 137.584 141.495 135.642 140.005 134.219L136.214 130.853C140.005 123.735 151.108 114.027 161.669 111.05C163.159 110.662 164.648 110.403 166.138 110.274C167.356 110.144 168.439 109.497 168.981 108.462C169.523 107.426 169.387 106.132 168.71 105.226C167.898 104.061 167.085 102.767 166.544 101.473C166.002 100.308 165.596 98.8839 165.19 97.4602C164.783 95.7776 162.888 94.7422 161.128 95.1304C159.367 95.5187 158.284 97.3308 158.69 99.0134C159.097 100.696 159.774 102.249 160.315 103.802C160.451 104.061 160.586 104.32 160.586 104.579C160.315 104.708 160.044 104.708 159.774 104.838C146.64 108.591 133.912 120.111 129.85 128.653C129.579 129.041 129.444 129.559 129.444 130.077C129.173 131.889 129.715 133.83 131.204 135.125L134.995 138.619L133.777 143.538C133.235 145.867 134.318 148.326 136.349 149.491C143.932 154.021 158.69 156.869 171.283 154.669C172.095 167.741 180.49 181.978 188.072 187.803C189.968 189.356 192.676 189.485 194.843 188.191L199.311 185.473L204.05 187.803C206.216 188.968 208.924 188.579 210.82 186.897C216.642 181.59 221.923 171.236 223.818 161.658C236.004 166.188 251.576 165.541 260.106 162.046C262.408 161.14 263.897 158.94 263.626 156.481L263.22 151.433L267.553 148.585C269.584 147.291 270.532 144.832 269.855 142.502C267.418 134.089 258.075 122.052 246.701 115.839C253.336 108.332 258.346 97.9779 259.023 90.2121C259.293 87.8823 257.804 85.5526 255.502 84.6466L250.628 82.5757L249.951 77.5279C249.68 75.1981 247.784 73.2567 245.347 72.7389C235.869 70.7975 218.944 73.5155 207.841 81.1519C201.748 70.2797 190.104 61.0902 181.709 58.3721Z" fill="url(#paint2_linear)"/>
<path opacity="0.1" d="M217.319 100.308C218.132 98.7549 217.455 96.8134 215.694 96.0368C214.07 95.2603 212.039 95.9074 211.226 97.59L207.029 106.003C204.321 105.356 201.613 105.226 198.905 105.615L195.655 96.8134C194.978 95.1308 193.082 94.2248 191.322 94.872C190.104 95.2603 189.291 96.2957 189.156 97.3312C189.02 97.8489 189.156 98.3666 189.291 99.0138L192.541 107.815C190.104 109.109 188.073 110.921 186.448 112.992L177.647 108.98C176.022 108.203 173.991 108.85 173.178 110.533C173.043 110.792 172.908 111.051 172.908 111.31C172.637 112.733 173.449 114.157 174.803 114.804L183.604 118.817C183.469 119.334 183.334 119.982 183.198 120.499C182.792 122.57 182.792 124.641 183.198 126.583L173.991 129.689C172.772 130.077 171.96 131.113 171.824 132.148C171.689 132.666 171.824 133.183 171.96 133.831C172.637 135.513 174.532 136.419 176.293 135.772L185.5 132.666C186.854 134.866 188.614 136.937 190.916 138.49L186.719 146.903C186.583 147.162 186.448 147.421 186.448 147.68C186.177 149.103 186.989 150.527 188.343 151.174C189.968 151.951 191.999 151.304 192.812 149.621L197.009 141.208C199.717 141.855 202.425 141.985 205.133 141.596L208.383 150.398C209.06 152.08 210.955 152.986 212.716 152.339C214.476 151.692 215.424 149.88 214.747 148.197L211.497 139.396C213.934 138.102 215.965 136.29 217.59 134.219L226.391 138.231C228.016 139.008 230.047 138.361 230.859 136.678C231.672 135.125 230.995 133.183 229.234 132.407L220.433 128.395C221.11 125.806 221.246 123.217 220.84 120.629L230.047 117.522C231.807 116.875 232.755 115.063 232.078 113.381C231.401 111.698 229.505 110.792 227.745 111.439L218.538 114.545C217.184 112.345 215.424 110.274 213.122 108.721L217.319 100.308ZM197.821 112.475C200.936 111.439 204.321 111.569 207.3 112.992C212.445 115.322 215.017 120.629 214.205 125.676C214.07 126.712 213.663 127.747 213.122 128.783C211.632 131.63 209.195 133.831 206.081 134.866C202.967 135.902 199.582 135.772 196.603 134.348C190.51 131.501 187.802 124.512 190.781 118.558C192.27 115.581 194.707 113.51 197.821 112.475Z" fill="url(#paint3_linear)"/>
<path opacity="0.1" d="M-13.4045 180.686C-14.4877 181.333 -15.0293 182.627 -14.6231 183.792L-13.9461 186.381L-15.8417 188.322C-16.7895 189.228 -16.9249 190.522 -16.3833 191.687C-15.3001 193.758 -13.1337 196.217 -10.4256 198.288C-9.61324 198.935 -8.53003 198.806 -7.98842 198.029C-7.31142 197.253 -7.44682 196.217 -8.25923 195.7C-10.4256 194.017 -12.1859 192.076 -13.1337 190.393L-11.2381 188.581C-10.4256 187.804 -10.1548 186.769 -10.4256 185.733L-11.1026 183.274C-7.44682 181.074 0.271046 179.65 5.82249 181.074C5.82249 181.074 5.95789 181.074 6.09329 181.074H6.22869C6.7703 181.203 7.44731 181.074 7.85351 180.686C8.25971 180.297 8.53051 179.78 8.39511 179.132C8.25971 178.615 8.25971 178.097 8.25971 177.579C8.25971 172.143 11.7801 165.413 14.8944 162.565L17.1962 163.86C18.144 164.377 19.2272 164.377 20.175 163.86L22.4768 162.565C25.0495 164.895 28.0283 170.331 28.8407 175.508C28.9761 176.026 29.2469 176.544 29.7885 176.803C30.3301 177.062 31.0071 177.062 31.4133 176.673C31.6841 176.544 31.8195 176.414 32.0903 176.285C37.2356 173.696 44.9534 173.567 49.1509 174.861L49.0155 177.45C49.0155 178.485 49.5571 179.391 50.3695 180.039L52.6713 181.462C51.4527 185.475 46.849 191.428 41.7038 194.017C41.5684 194.146 41.2976 194.146 41.0268 194.276C40.4852 194.535 40.079 194.923 39.9436 195.57C39.8082 196.088 40.079 196.735 40.4852 197.123C44.5472 200.618 47.3906 206.054 47.9322 209.419L45.495 210.584C44.5472 210.972 43.8702 211.878 43.7348 212.914L43.464 215.503C39.2666 216.409 31.5487 215.244 26.8097 212.008C26.4035 211.749 25.8619 211.361 25.4557 210.972C25.0495 210.584 24.3724 210.455 23.8308 210.584C23.2892 210.714 22.7476 211.102 22.6122 211.62V211.749C22.6122 211.878 22.6122 211.878 22.4768 212.008C20.4458 217.185 14.8944 222.362 10.8323 223.916L9.07212 221.974C8.39511 221.197 7.3119 220.809 6.22869 220.939L3.52067 221.327C1.62506 217.573 0.812649 210.196 2.84367 205.019C3.11447 204.371 3.52067 203.595 3.92688 203.077C4.33308 202.559 4.33308 201.912 4.06228 201.395C4.06228 201.006 3.52067 200.618 2.84367 200.618C2.03126 200.618 1.21885 200.489 0.541847 200.359C-0.135158 200.23 -0.812164 199.971 -1.62457 199.712C-2.57238 199.324 -3.52019 199.712 -3.92639 200.618C-4.33259 201.524 -3.92639 202.43 -2.97858 202.818C-2.16618 203.207 -1.21837 203.465 -0.40596 203.595C-0.270559 203.595 -0.135159 203.724 0.000242203 203.724C0.000242203 203.854 -0.135158 203.983 -0.135158 204.113C-2.57238 210.584 -1.48917 219.127 0.812649 223.527C0.948051 223.786 1.08345 223.916 1.21885 224.174C1.89586 224.822 2.97907 225.21 3.92688 225.08L6.6349 224.692L8.39511 226.763C9.20752 227.669 10.5615 228.057 11.7801 227.669C16.113 226.116 22.0706 221.068 24.914 215.373C30.8717 219.127 39.6728 220.291 44.5472 219.127C45.7658 218.868 46.7136 217.832 46.849 216.538L47.1198 213.949L49.5571 212.784C50.7757 212.267 51.4527 211.102 51.3173 209.808C50.7757 205.795 47.9322 200.489 44.4118 196.735C50.0987 193.37 54.8377 186.898 55.9209 182.498C56.1917 181.333 55.6501 180.039 54.5669 179.391L52.2651 177.968L52.4005 175.379C52.4005 174.085 51.7235 173.049 50.5049 172.532C46.0366 170.849 37.9126 170.849 31.6841 173.308C30.4655 168.26 27.6221 163.083 24.3724 160.365C23.4246 159.588 21.9352 159.33 20.852 159.977L18.4148 161.271L15.9776 159.977C14.8944 159.33 13.405 159.459 12.4571 160.365C8.66592 163.601 4.46848 171.108 4.33308 177.968C-1.89537 176.544 -9.47784 178.226 -13.4045 180.686Z" fill="url(#paint4_linear)"/>
<path opacity="0.1" d="M16.1129 179.65C15.7067 178.873 14.6235 178.485 13.6757 178.873C12.8633 179.261 12.4571 180.297 12.8633 181.203L15.1651 185.474C14.0819 186.251 13.1341 187.416 12.4571 188.581L7.58267 187.157C6.63486 186.898 5.68706 187.416 5.41625 188.192C5.28085 188.839 5.41625 189.357 5.82246 189.875C5.95786 190.134 6.22866 190.263 6.63486 190.393L11.5093 191.816C11.3739 193.24 11.5093 194.534 11.9155 195.829L7.44727 198.029C6.63486 198.417 6.22866 199.453 6.63486 200.359C6.77027 200.488 6.77027 200.618 6.90567 200.747C7.44727 201.265 8.25968 201.394 9.07208 201.135L13.5403 198.935C13.6757 199.194 13.9465 199.453 14.0819 199.582C14.8943 200.359 15.7067 201.006 16.7899 201.524L15.3005 206.183C15.1651 206.83 15.3005 207.348 15.7067 207.866C15.8421 208.125 16.1129 208.254 16.5191 208.383C17.467 208.642 18.4148 208.125 18.6856 207.348L20.175 202.688C21.529 202.818 23.0184 202.818 24.3724 202.3L26.6742 206.571C26.8096 206.701 26.8096 206.83 26.945 206.96C27.4866 207.477 28.299 207.607 29.1115 207.348C29.9239 206.96 30.3301 205.924 29.9239 205.018L27.622 200.747C28.7052 199.97 29.6531 198.806 30.3301 197.641L35.2045 199.064C36.1523 199.323 37.1001 198.806 37.3709 198.029C37.6417 197.123 37.1001 196.217 36.2877 195.958L31.4133 194.534C31.5487 193.111 31.4133 191.816 31.0071 190.522L35.4753 188.322C36.2877 187.933 36.6939 186.898 36.2877 185.992C35.8815 185.215 34.7983 184.827 33.8505 185.215L29.3823 187.416C28.4344 186.251 27.3512 185.474 26.1326 184.827L27.622 180.168C27.8928 179.262 27.3512 178.355 26.5388 178.097C25.591 177.838 24.6432 178.355 24.3724 179.132L22.883 183.792C21.529 183.662 20.0396 183.662 18.6856 184.18L16.1129 179.65ZM15.3005 191.299C15.8421 189.745 16.9253 188.451 18.4148 187.674C20.9874 186.38 24.1016 187.027 26.1326 188.969C26.5388 189.357 26.8096 189.875 27.0804 190.263C27.8928 191.687 28.0282 193.369 27.4866 194.923C26.945 196.476 25.8618 197.77 24.3724 198.547C21.2582 200.1 17.3316 198.935 15.7067 195.958C14.8943 194.534 14.7589 192.852 15.3005 191.299Z" fill="url(#paint5_linear)"/>
<path opacity="0.1" d="M511.41 -134.478C507.348 -138.103 501.391 -138.879 496.516 -136.42C477.425 -126.842 452.646 -99.2733 445.064 -71.3163C418.931 -81.5413 385.352 -81.2825 366.937 -74.6815C361.792 -72.8695 358.407 -67.9511 358.542 -62.7739L358.949 -51.5134L349.064 -45.5596C345.138 -43.1004 342.836 -38.9586 343.107 -34.4285C343.107 -33.652 343.242 -32.8754 343.513 -32.0988C348.658 -11.7782 370.729 18.5086 397.673 32.0988C398.215 32.3577 398.757 32.6166 399.298 32.8754C398.892 33.3932 398.621 33.9109 398.215 34.2992C381.29 58.6321 376.957 95.3904 382.644 115.452C384.133 120.629 388.737 124.254 394.288 124.642L405.933 125.418L411.214 135.385C413.651 140.044 419.067 142.762 424.483 142.115C444.116 139.526 473.633 124.383 491.506 103.545C512.087 124.771 547.698 137.585 569.227 137.326C574.778 137.197 579.652 133.831 581.413 128.784L585.069 118.17L596.578 115.841C601.994 114.676 606.056 110.404 606.597 105.098C607.139 100.05 607.004 94.355 606.191 88.0129C605.65 84.13 601.858 81.2825 597.796 81.8002C593.734 82.3179 590.755 85.8126 591.297 89.8249C591.839 94.355 592.109 98.6262 591.839 102.121L580.736 104.451C576.267 105.357 572.612 108.463 571.258 112.605L567.737 122.959C549.323 122.571 518.451 110.534 502.068 93.1901C500.443 91.5075 499.089 89.6955 497.735 87.754C496.381 85.6832 493.944 84.5183 491.371 84.5183C488.798 84.5183 486.361 85.8126 485.007 87.8835L484.736 88.2718C484.601 88.5306 484.466 88.7895 484.195 89.0484C470.655 108.592 442.085 124.771 423.806 127.748L418.661 118.041C416.63 114.158 412.567 111.569 407.964 111.31L396.59 110.534C392.393 93.3196 396.996 61.8679 410.537 42.3239C412.432 39.7353 414.463 37.2761 416.9 35.0757C418.931 33.2637 419.608 30.6751 419.067 28.0865C418.39 25.6273 416.359 23.5564 413.786 22.9093C410.536 22.1327 407.422 20.9678 404.443 19.4146C382.779 8.41302 363.146 -17.2143 358.136 -34.1697L367.75 -39.9941C371.541 -42.3238 373.843 -46.4656 373.707 -50.8662L373.301 -61.7384C390.768 -67.3039 424.077 -66.1391 445.741 -55.1375C446.012 -55.008 446.282 -54.8786 446.553 -54.7492L446.959 -54.4903C449.126 -53.3254 451.969 -53.196 454.136 -54.3609C456.437 -55.5257 457.927 -57.7261 458.062 -60.1853C458.198 -62.515 458.604 -64.7153 459.145 -66.9157C464.968 -89.6955 485.955 -114.287 502.068 -123.089L510.327 -115.582C513.577 -112.605 518.451 -111.44 522.784 -112.734L533.752 -115.84C542.011 -103.545 549.052 -78.5644 546.615 -56.4318C546.344 -53.9726 547.427 -51.6428 549.323 -50.0897C551.354 -48.5365 553.926 -48.1482 556.363 -48.9248C557.447 -49.3131 558.395 -49.5719 559.342 -49.7014C583.038 -55.3963 615.669 -49.0542 631.24 -39.7352L628.126 -29.2513C626.907 -25.1095 628.126 -20.45 631.24 -17.3437L639.229 -9.57785C630.157 5.82441 604.702 26.2745 581.007 31.9694C580.194 32.2283 579.111 32.3577 578.028 32.6166C575.59 33.0049 573.424 34.6874 572.476 36.8878C571.528 39.0881 571.799 41.6767 573.153 43.7476C576.403 48.2777 579.382 53.4549 581.954 59.1499C583.579 62.7739 588.047 64.4565 591.839 62.7739C595.63 61.2207 597.39 56.9495 595.63 53.3255C594.14 50.0897 592.516 46.9834 590.891 44.1359C618.242 35.3346 643.968 12.9431 653.175 -4.27119C655.748 -8.9307 654.8 -14.7551 651.009 -18.5086L642.885 -26.5333L645.999 -37.276C647.488 -42.3238 645.457 -47.7599 640.854 -50.7368C624.064 -61.609 590.349 -69.5043 561.915 -64.8448C561.915 -86.7185 555.28 -111.181 545.125 -125.159C541.876 -129.56 536.189 -131.372 530.908 -129.948L519.941 -126.842L511.41 -134.478Z" fill="#A36E04"/>
<path opacity="0.1" d="M506.4 69.2465C507.484 73.1295 511.546 75.4592 515.472 74.4238C519.534 73.3883 521.972 69.5054 520.888 65.7519L515.608 45.6901C521.295 43.231 526.169 39.7363 530.096 35.3357L548.781 45.949C552.301 48.0199 556.905 46.855 559.071 43.4898C561.238 40.1246 560.019 35.724 556.499 33.6531L537.949 23.0398C540.115 17.7331 541.063 11.9087 540.522 5.95491L561.509 0.907115C565.571 -0.12833 568.008 -4.01125 566.925 -7.76474C565.842 -11.6477 561.78 -13.9774 557.853 -12.942L536.866 -7.89418C534.293 -13.3303 530.637 -17.9898 526.034 -21.7433L537.137 -39.4753C539.303 -42.8405 538.084 -47.2411 534.564 -49.312C531.043 -51.3829 526.44 -50.218 524.273 -46.8528L513.171 -28.9914C507.619 -31.0623 501.526 -31.9683 495.298 -31.4506L490.017 -51.5123C489.069 -55.3952 484.872 -57.725 480.945 -56.6896C477.425 -55.7835 475.123 -52.6772 475.258 -49.4414C475.258 -48.9237 475.394 -48.5354 475.529 -48.0177L480.81 -27.9559C475.258 -25.4968 470.384 -22.0021 466.322 -17.6015L447.772 -28.2148C444.251 -30.2857 439.648 -29.1208 437.481 -25.7556C436.669 -24.4613 436.398 -23.0376 436.398 -21.7433C436.533 -19.4135 437.752 -17.2132 440.054 -15.9189L458.604 -5.30556C456.573 -0.128334 455.625 5.43719 455.896 10.8733C455.896 11.1321 455.896 11.5204 456.031 11.7793L434.909 16.8271C431.388 17.7331 429.086 20.8394 429.222 24.0752C429.222 24.5929 429.357 24.9812 429.493 25.499C430.576 29.3819 434.638 31.7116 438.565 30.6762L459.552 25.6284C462.124 31.0645 465.78 35.724 470.384 39.4775L459.281 57.2095C458.469 58.5038 458.198 59.9275 458.198 61.2218C458.333 63.5516 459.552 65.7519 461.854 67.0462C465.374 69.1171 469.978 67.9522 472.144 64.587L483.247 46.855C488.798 48.9259 494.891 49.7025 501.12 49.3142L506.4 69.2465ZM504.911 34.1708C490.288 37.6654 475.394 29.2524 471.602 15.2739C469.842 8.54353 470.925 1.42484 474.581 -4.52898C478.372 -10.4828 484.33 -14.754 491.371 -16.566C505.994 -20.0607 520.888 -11.6477 524.68 2.33085C525.086 4.01345 525.357 5.69605 525.492 7.50808C526.034 19.6746 517.639 31.0645 504.911 34.1708Z" fill="#A36E04"/>
</g>
<defs>
<linearGradient id="paint0_linear" x1="10.7459" y1="140.315" x2="-2.78034" y2="-137.499" gradientUnits="userSpaceOnUse">
<stop stop-color="#B57E10"/>
<stop offset="0.1507" stop-color="#B57E10"/>
<stop offset="0.4638" stop-color="#E5C35C"/>
<stop offset="0.6129" stop-color="#F9DF7B"/>
<stop offset="0.7204" stop-color="#FFF3A6"/>
<stop offset="0.8387" stop-color="#F9DF7B"/>
<stop offset="1" stop-color="#B57E10"/>
</linearGradient>
<linearGradient id="paint1_linear" x1="4.77663" y1="75.2948" x2="-1.69475" y2="-57.6209" gradientUnits="userSpaceOnUse">
<stop stop-color="#B57E10"/>
<stop offset="0.1507" stop-color="#B57E10"/>
<stop offset="0.4638" stop-color="#E5C35C"/>
<stop offset="0.6129" stop-color="#F9DF7B"/>
<stop offset="0.7204" stop-color="#FFF3A6"/>
<stop offset="0.8387" stop-color="#F9DF7B"/>
<stop offset="1" stop-color="#B57E10"/>
</linearGradient>
<linearGradient id="paint2_linear" x1="190.066" y1="188.784" x2="211.116" y2="63.1863" gradientUnits="userSpaceOnUse">
<stop stop-color="#B57E10"/>
<stop offset="0.1507" stop-color="#B57E10"/>
<stop offset="0.4638" stop-color="#E5C35C"/>
<stop offset="0.6129" stop-color="#F9DF7B"/>
<stop offset="0.7204" stop-color="#FFF3A6"/>
<stop offset="0.8387" stop-color="#F9DF7B"/>
<stop offset="1" stop-color="#B57E10"/>
</linearGradient>
<linearGradient id="paint3_linear" x1="196.66" y1="152.633" x2="206.442" y2="94.2644" gradientUnits="userSpaceOnUse">
<stop stop-color="#B57E10"/>
<stop offset="0.1507" stop-color="#B57E10"/>
<stop offset="0.4638" stop-color="#E5C35C"/>
<stop offset="0.6129" stop-color="#F9DF7B"/>
<stop offset="0.7204" stop-color="#FFF3A6"/>
<stop offset="0.8387" stop-color="#F9DF7B"/>
<stop offset="1" stop-color="#B57E10"/>
</linearGradient>
<linearGradient id="paint4_linear" x1="46.0353" y1="218.302" x2="0.995392" y2="167.858" gradientUnits="userSpaceOnUse">
<stop stop-color="#B57E10"/>
<stop offset="0.1507" stop-color="#B57E10"/>
<stop offset="0.4638" stop-color="#E5C35C"/>
<stop offset="0.6129" stop-color="#F9DF7B"/>
<stop offset="0.7204" stop-color="#FFF3A6"/>
<stop offset="0.8387" stop-color="#F9DF7B"/>
<stop offset="1" stop-color="#B57E10"/>
</linearGradient>
<linearGradient id="paint5_linear" x1="32.3709" y1="204.345" x2="11.4397" y2="180.902" gradientUnits="userSpaceOnUse">
<stop stop-color="#B57E10"/>
<stop offset="0.1507" stop-color="#B57E10"/>
<stop offset="0.4638" stop-color="#E5C35C"/>
<stop offset="0.6129" stop-color="#F9DF7B"/>
<stop offset="0.7204" stop-color="#FFF3A6"/>
<stop offset="0.8387" stop-color="#F9DF7B"/>
<stop offset="1" stop-color="#B57E10"/>
</linearGradient>
</defs>
</svg>
