<svg width="24" height="24" viewBox="0 0 24 24" fill="none" xmlns="http://www.w3.org/2000/svg">
<g clip-path="url(#clip0)">
<path d="M6.5 24C7.88071 24 9 22.8807 9 21.5C9 20.1193 7.88071 19 6.5 19C5.11929 19 4 20.1193 4 21.5C4 22.8807 5.11929 24 6.5 24Z" fill="white"/>
<path d="M19.5 24C20.8807 24 22 22.8807 22 21.5C22 20.1193 20.8807 19 19.5 19C18.1193 19 17 20.1193 17 21.5C17 22.8807 18.1193 24 19.5 24Z" fill="white"/>
<path d="M20 17H6C5.499 17 5.075 16.629 5.009 16.132L3.125 2H0V0H4C4.501 0 4.925 0.371 4.991 0.868L5.542 5H23C23.316 5 23.614 5.149 23.802 5.403C23.991 5.657 24.049 5.985 23.958 6.287L20.958 16.287C20.831 16.71 20.441 17 20 17Z" fill="white"/>
</g>
<defs>
<clipPath id="clip0">
<rect width="24" height="24" fill="white"/>
</clipPath>
</defs>
</svg>
