<svg width="140" height="140" viewBox="0 0 140 140" fill="none" xmlns="http://www.w3.org/2000/svg">
<path opacity="0.05" fill-rule="evenodd" clip-rule="evenodd" d="M70 140C108.66 140 140 108.66 140 70C140 31.3401 108.66 0 70 0C31.3401 0 0 31.3401 0 70C0 108.66 31.3401 140 70 140Z" fill="#37C86F"/>
<path opacity="0.1" fill-rule="evenodd" clip-rule="evenodd" d="M69.9992 114.8C94.7416 114.8 114.799 94.7423 114.799 70C114.799 45.2576 94.7416 25.2 69.9992 25.2C45.2569 25.2 25.1992 45.2576 25.1992 70C25.1992 94.7423 45.2569 114.8 69.9992 114.8Z" fill="#37C86F"/>
<path d="M50.9698 69.645C49.8815 68.5553 48.1199 68.5502 47.0181 69.6506C45.924 70.7434 45.928 72.5214 47.0197 73.6145L59.628 86.2389C60.7231 87.3353 62.5053 87.3285 63.5879 86.2445L91.8221 57.9743C92.9141 56.8809 92.9199 55.1163 91.8181 54.016C90.7239 52.9232 88.9456 52.9298 87.8521 54.0247L61.6108 80.2995L50.9698 69.645Z" fill="#37C86F"/>
</svg>
