<svg width="36" height="36" viewBox="0 0 36 36" fill="none" xmlns="http://www.w3.org/2000/svg">
<rect x="0.5" y="0.5" width="35" height="35" rx="17.5" stroke="#1B315F"/>
<g clip-path="url(#clip0)">
<path d="M25.6704 16.545H18.0344V19.818H22.3624C21.6704 22 19.9614 22.727 17.9994 22.727C17.2391 22.728 16.4898 22.5455 15.815 22.1951C15.1403 21.8447 14.56 21.3368 14.1234 20.7143C13.6868 20.0918 13.4068 19.3732 13.3072 18.6195C13.2076 17.8657 13.2912 17.0991 13.5511 16.3845C13.8109 15.67 14.2392 15.0287 14.7998 14.515C15.3603 14.0013 16.0365 13.6305 16.7709 13.4338C17.5054 13.2372 18.2764 13.2206 19.0186 13.3855C19.7608 13.5504 20.4523 13.8919 21.0344 14.381L23.4124 12.116C22.4547 11.2338 21.2962 10.5987 20.0375 10.2659C18.7787 9.93299 17.4577 9.91238 16.1892 10.2058C14.9206 10.4993 13.7429 11.0979 12.7582 11.9498C11.7735 12.8016 11.0116 13.881 10.5386 15.0941C10.0657 16.3072 9.89596 17.6174 10.0442 18.9109C10.1925 20.2045 10.6542 21.4423 11.3894 22.517C12.1245 23.5916 13.1109 24.4706 14.2628 25.0775C15.4147 25.6845 16.6973 26.0012 17.9994 26C22.4104 26 26.3994 23.091 25.6704 16.545Z" fill="#1B315F"/>
</g>
<defs>
<clipPath id="clip0">
<rect width="16" height="16" fill="white" transform="translate(10 10)"/>
</clipPath>
</defs>
</svg>
