<svg width="86" height="86" viewBox="0 0 86 86" fill="none" xmlns="http://www.w3.org/2000/svg">
<rect opacity="0.01" x="12" y="12" width="62" height="62" fill="#C4C4C4" fill-opacity="0.01"/>
<path fill-rule="evenodd" clip-rule="evenodd" d="M1.34375 43C1.34375 20.0313 20.0299 1.34375 43 1.34375C65.9701 1.34375 84.6562 20.0313 84.6562 43C84.6562 65.9687 65.9701 84.6562 43 84.6562C20.0299 84.6562 1.34375 65.9687 1.34375 43ZM19.096 70.159C25.7019 75.3069 33.9955 78.3854 43 78.3854C52.0031 78.3854 60.2967 75.3082 66.9026 70.1603C63.0367 63.5907 56.0787 59.5729 48.375 59.5729H37.625C29.9119 59.5729 22.9539 63.5907 19.096 70.159ZM43.6719 51.5108C50.7221 51.5108 56.4375 45.7955 56.4375 38.7452C56.4375 31.695 50.7221 25.9796 43.6719 25.9796C36.6216 25.9796 30.9062 31.695 30.9062 38.7452C30.9062 45.7955 36.6216 51.5108 43.6719 51.5108Z" fill="#C4A732"/>
</svg>
