<svg width="16" height="16" viewBox="0 0 16 16" fill="none" xmlns="http://www.w3.org/2000/svg">
<path d="M15.7071 1.70712C16.0976 1.3166 16.0976 0.683437 15.7071 0.292906C15.3166 -0.0976256 14.6834 -0.0976366 14.2929 0.292881L8 6.58557L1.70709 0.292881C1.31656 -0.0976366 0.683398 -0.0976256 0.292881 0.292906C-0.0976366 0.683437 -0.0976256 1.3166 0.292906 1.70712L6.58576 7.99976L0.292906 14.2924C-0.0976256 14.6829 -0.0976366 15.3161 0.292881 15.7066C0.683398 16.0971 1.31656 16.0971 1.70709 15.7066L8 9.41395L14.2929 15.7066C14.6834 16.0971 15.3166 16.0971 15.7071 15.7066C16.0976 15.3161 16.0976 14.6829 15.7071 14.2924L9.41424 7.99976L15.7071 1.70712Z" fill="#A6AEBB"/>
</svg>
