<svg width="26" height="26" viewBox="0 0 26 26" fill="none" xmlns="http://www.w3.org/2000/svg">
<path d="M16.97 15.6268L14.4008 18.1581C13.0612 17.3494 11.8166 16.3928 10.6904 15.3063C9.60617 14.1793 8.65033 12.9355 7.84048 11.5975L10.3724 9.02781C10.5244 8.87243 10.627 8.67557 10.6674 8.462C10.7077 8.24843 10.684 8.0277 10.5992 7.82757L7.96048 1.66672C7.85619 1.42403 7.66819 1.22689 7.43075 1.11123C7.19331 0.99557 6.92223 0.969081 6.66689 1.03659L1.82615 2.31485C1.5838 2.37767 1.37002 2.5211 1.21998 2.72156C1.06994 2.92202 0.992559 3.16759 1.00056 3.41787C1.30886 9.04872 3.64974 14.3763 7.58848 18.4113C11.624 22.3515 16.9523 24.6926 22.5835 24.9995C22.8334 25.0073 23.0786 24.9299 23.2786 24.7798C23.4786 24.6297 23.6216 24.4159 23.6839 24.1737L24.9631 19.3295C25.0309 19.0743 25.0047 18.8031 24.8893 18.5656C24.7738 18.3281 24.5769 18.14 24.3343 18.0356L18.1796 15.3975C17.9781 15.3108 17.7552 15.2863 17.5397 15.3271C17.3242 15.3679 17.1258 15.4723 16.97 15.6268V15.6268Z" stroke="#505F79" stroke-width="2" stroke-miterlimit="10" stroke-linecap="square"/>
</svg>
