<svg width="24" height="24" viewBox="0 0 24 24" fill="none" xmlns="http://www.w3.org/2000/svg">
<path d="M23.25 11.9531C23.25 5.77963 18.1418 0.75 11.9531 0.75C5.77212 0.75 0.75 5.77203 0.75 11.9531C0.75 18.1419 5.77971 23.25 11.9531 23.25C18.1341 23.25 23.25 18.1342 23.25 11.9531Z" fill="white" stroke="#505F79" stroke-width="1.5"/>
<path d="M20.4375 11.9531C20.4375 7.34282 16.5834 3.5625 11.9531 3.5625C7.33287 3.5625 3.5625 7.33291 3.5625 11.9531C3.5625 16.5833 7.34278 20.4375 11.9531 20.4375C16.5734 20.4375 20.4375 16.5733 20.4375 11.9531Z" fill="white" stroke="#505F79" stroke-width="1.5"/>
<path d="M10.5469 11.25H11.25V8.4375H10.5469C10.1531 8.4375 9.84375 8.74683 9.84375 9.14062C9.84375 10.0687 8.4375 10.0687 8.4375 9.14062C8.4375 7.97339 9.37959 7.03125 10.5469 7.03125H11.25V6.32812C11.25 5.86402 11.6016 5.625 11.9531 5.625C12.3047 5.625 12.6562 5.86402 12.6562 6.32812V7.03125H13.4531C14.6204 7.03125 15.5625 7.97339 15.5625 9.14062V10.5469C15.5625 11.7141 14.6204 12.6562 13.4531 12.6562H12.6562V15.5625H13.4531C13.8469 15.5625 14.1562 15.2532 14.1562 14.8594C14.1562 13.9313 15.5625 13.9313 15.5625 14.8594C15.5625 16.0266 14.6204 16.9688 13.4531 16.9688H12.6562V17.6719C12.6562 18.136 12.3047 18.375 11.9531 18.375C11.6016 18.375 11.25 18.136 11.25 17.6719V16.9688H10.5469C9.37959 16.9688 8.4375 16.0266 8.4375 14.8594V13.3594C8.4375 12.1921 9.37959 11.25 10.5469 11.25ZM12.6562 11.25H13.4531C13.8469 11.25 14.1562 10.9407 14.1562 10.5469V9.14062C14.1562 8.74683 13.8469 8.4375 13.4531 8.4375H12.6562V11.25ZM9.84375 14.8594C9.84375 15.2532 10.1531 15.5625 10.5469 15.5625H11.25V12.6562H10.5469C10.1531 12.6562 9.84375 12.9656 9.84375 13.3594V14.8594Z" fill="#505F79"/>
</svg>
