<svg width="26" height="26" viewBox="0 0 26 26" fill="none" xmlns="http://www.w3.org/2000/svg">
<path d="M13.0004 16.2722C10.5905 16.2722 8.63672 14.3184 8.63672 11.9086C8.63672 9.49874 10.5905 7.54492 13.0004 7.54492C15.4102 7.54492 17.364 9.49874 17.364 11.9086C17.364 14.3184 15.4102 16.2722 13.0004 16.2722Z" stroke="#505F79" stroke-width="2" stroke-miterlimit="10" stroke-linecap="square"/>
<path d="M20.748 22.9856C19.548 21.574 16.6352 19.5449 14.6367 19.5449H11.364C9.34906 19.5449 6.45597 21.5467 5.25488 22.978" stroke="#505F79" stroke-width="2" stroke-miterlimit="10"/>
<path d="M13 25C19.6274 25 25 19.6274 25 13C25 6.37258 19.6274 1 13 1C6.37258 1 1 6.37258 1 13C1 19.6274 6.37258 25 13 25Z" stroke="#505F79" stroke-width="2" stroke-miterlimit="10" stroke-linecap="square"/>
</svg>
