<svg width="12" height="12" viewBox="0 0 12 12" fill="none" xmlns="http://www.w3.org/2000/svg">
<path fill-rule="evenodd" clip-rule="evenodd" d="M6.00092 0.439359C5.8499 -0.0184525 5.20229 -0.0184521 5.05126 0.439359L4.03567 3.51794C3.96807 3.72286 3.77663 3.86129 3.56084 3.86129H0.522776C0.0516789 3.86129 -0.158015 4.45324 0.208028 4.7498L2.53766 6.63717C2.68835 6.75925 2.75485 6.95745 2.70829 7.14571L1.85419 10.5994C1.74127 11.056 2.26403 11.4018 2.64002 11.1191L5.22561 9.17534C5.40359 9.04155 5.64859 9.04156 5.82655 9.17537L8.37352 11.0905C8.75363 11.3763 9.28047 11.0201 9.15681 10.5608L8.25686 7.21891C8.20539 7.02776 8.27153 6.82425 8.42554 6.69988L10.8399 4.7503C11.2067 4.45409 10.9973 3.86129 10.5258 3.86129H7.49135C7.27556 3.86129 7.08412 3.72286 7.01652 3.51794L6.00092 0.439359Z" fill="#FF4355"/>
</svg>
