<svg width="12" height="12" viewBox="0 0 12 12" fill="none" xmlns="http://www.w3.org/2000/svg">
<path fill-rule="evenodd" clip-rule="evenodd" d="M6.03608 0.439359C5.88505 -0.0184525 5.23745 -0.0184521 5.08642 0.439359L4.07083 3.51794C4.00323 3.72286 3.81179 3.86129 3.596 3.86129H0.557932C0.0868351 3.86129 -0.122859 4.45324 0.243185 4.7498L2.57282 6.63717C2.7235 6.75925 2.79001 6.95745 2.74345 7.14571L1.88935 10.5994C1.77642 11.056 2.29919 11.4018 2.67518 11.1191L5.26077 9.17534C5.43875 9.04155 5.68375 9.04156 5.86171 9.17537L8.40868 11.0905C8.78879 11.3763 9.31563 11.0201 9.19197 10.5608L8.29202 7.21891C8.24055 7.02776 8.30669 6.82425 8.4607 6.69988L10.8751 4.7503C11.2419 4.45409 11.0324 3.86129 10.5609 3.86129H7.5265C7.31072 3.86129 7.11927 3.72286 7.05167 3.51794L6.03608 0.439359Z" fill="#D5D6DB"/>
</svg>
