<svg width="41" height="31" viewBox="0 0 41 31" fill="none" xmlns="http://www.w3.org/2000/svg">
<path d="M27.3257 17.9291C28.7024 16.0373 28.4639 13.2803 26.6305 11.7331C24.872 10.2519 22.248 10.5892 20.8712 12.481C19.4945 14.3728 19.733 17.1298 21.5664 18.677C23.3249 20.1435 25.9489 19.8062 27.3257 17.9291ZM22.357 15.9053C21.805 15.4287 21.6482 14.6954 22.0094 13.8962L21.4574 13.4196L21.9481 12.7377L22.4388 13.1483C22.6638 12.8403 23.0727 12.5837 23.3726 12.349L23.911 13.1629C23.7338 13.2509 23.4339 13.5002 23.1068 13.9475C22.841 14.3215 22.8069 14.6661 23.0114 14.8494C23.2158 15.0181 23.5362 14.9154 24.1223 14.5781C24.947 14.0648 25.5127 13.9109 26.0716 14.3875C26.5146 14.8788 26.5964 15.678 26.2965 16.4113L26.8486 16.8879L26.3578 17.5698L25.8671 17.1592C25.6422 17.4671 25.0629 17.9438 24.838 18.1124L24.2995 17.2985C24.5994 17.1958 25.0765 16.8585 25.3423 16.4846C25.6763 16.0226 25.6899 15.6853 25.4241 15.4434C25.2196 15.2747 24.9674 15.2894 24.3609 15.6487C23.6384 16.1399 22.9159 16.3819 22.357 15.9053ZM31.1424 0.375L28.7501 3.27135L26.1738 1.10825L19.7807 9.92929C19.6512 9.8413 19.2764 9.65799 19.2423 9.60666C17.8791 8.92474 16.0457 8.99073 14.7167 9.72398L0.880859 18.0317V29.0672L7.00815 25.8482C9.76168 27.2414 12.9105 26.8894 15.446 25.203L21.4301 30.2257L23.2158 27.7547L24.6267 29.0965L40.7662 9.59933L31.1424 0.375ZM22.8205 26.3248C21.6618 25.6796 20.2237 25.8849 19.2764 26.8528L14.5122 22.8346C13.4694 23.7365 12.2017 24.2131 10.9067 24.2131C10.3206 24.2131 9.74805 24.1104 9.18235 23.9271C8.89609 23.8244 8.73933 23.5018 8.82112 23.1938C8.91654 22.8859 9.21643 22.7172 9.50269 22.8052C10.9135 23.2818 12.4471 23.0105 13.633 22.0866C13.9329 21.8447 14.2532 21.5587 14.5804 21.1701L16.0389 19.3149L20.251 22.8712C20.9803 23.4138 21.8322 23.2818 22.3093 22.6659C22.8137 21.8813 22.691 20.9428 22.1185 20.4515L14.5531 13.8962C14.3282 13.7055 14.3009 13.3536 14.4713 13.1116C14.6485 12.8696 14.9757 12.8403 15.2006 13.0236L17.5247 15.0327L24.8448 4.90651C25.9694 5.5371 27.3461 5.34646 28.2799 4.44456L32.6964 8.14015C32.0966 9.38668 32.3011 10.9119 33.2008 11.9384L22.8205 26.3248ZM25.2878 24.8803L36.336 9.62133L29.9565 4.27591C30.9721 4.75252 32.1716 4.59854 33.0577 3.85062L37.2357 7.85419C36.5677 9.04939 36.6631 10.5966 37.5015 11.6671L26.2488 25.269C25.9489 25.1003 25.6354 24.961 25.2878 24.8803Z" fill="#A6AEBB"/>
</svg>
