<svg width="24" height="23" viewBox="0 0 24 23" fill="none" xmlns="http://www.w3.org/2000/svg">
<path d="M10.414 18.414C10.0235 18.8044 9.3905 18.8044 9 18.414L6 15.414L7.414 14L9.707 16.293L16 10L17.414 11.414L10.414 18.414Z" fill="#A6AEBB"/>
<path d="M19 3V1C19 0.447715 18.5523 0 18 0C17.4477 0 17 0.447715 17 1V3H19Z" fill="#A6AEBB"/>
<path d="M7 3V1C7 0.447715 6.55228 0 6 0C5.44772 0 5 0.447715 5 1V3H7Z" fill="#A6AEBB"/>
<path fill-rule="evenodd" clip-rule="evenodd" d="M3 23H21C22.6569 23 24 21.6569 24 20V7C24 5.34315 22.6569 4 21 4H3C1.34315 4 0 5.34315 0 7V20C0 21.6569 1.34315 23 3 23ZM2 9H22V20C22 20.5523 21.5523 21 21 21H3C2.44772 21 2 20.5523 2 20V9Z" fill="#A6AEBB"/>
</svg>
