<svg width="53" height="50" viewBox="0 0 53 50" fill="none" xmlns="http://www.w3.org/2000/svg">
<path d="M50.4723 45.6518H48.3093V28.2598H43.9832V45.6518H35.3311V28.2598H31.005V45.6518H22.3529V28.2598H18.0269V45.6518H9.37477V28.2598H5.04871V45.6518H2.88568C1.69169 45.6518 0.722656 46.6236 0.722656 47.8258C0.722656 49.0281 1.69169 49.9998 2.88568 49.9998H50.4723C51.6663 49.9998 52.6353 49.0281 52.6353 47.8258C52.6353 46.6236 51.6663 45.6518 50.4723 45.6518Z" fill="#A6AEBB"/>
<path d="M51.5084 13.3082L27.7151 0.264142C27.0683 -0.0880473 26.2896 -0.0880473 25.6429 0.264142L1.84959 13.3082C1.15526 13.6886 0.722656 14.4213 0.722656 15.217V21.739C0.722656 22.9412 1.69169 23.913 2.88568 23.913H50.4723C51.6663 23.913 52.6353 22.9412 52.6353 21.739V15.217C52.6353 14.4213 52.2027 13.6886 51.5084 13.3082ZM26.679 17.391C24.2888 17.391 22.3529 15.4452 22.3529 13.043C22.3529 10.6407 24.2888 8.69494 26.679 8.69494C29.0691 8.69494 31.005 10.6407 31.005 13.043C31.005 15.4452 29.0691 17.391 26.679 17.391Z" fill="#A6AEBB"/>
</svg>
