<svg width="59" height="59" viewBox="0 0 59 59" fill="none" xmlns="http://www.w3.org/2000/svg">
<path d="M56.4616 19.1348H53.6844V37.2866C53.6844 40.1701 51.3589 42.5089 48.4886 42.5222H7.97266V45.7645C7.97266 47.1731 9.11545 48.369 10.5107 48.369H56.4616C57.8569 48.369 58.9997 47.1731 58.9997 45.7645V21.7127C58.9997 20.3041 57.8702 19.1481 56.4616 19.1348Z" fill="#ADB1B9"/>
<path d="M5.66093 14.6836C4.85035 14.6836 4.19922 15.3347 4.19922 16.1453C4.19922 16.9559 4.85035 17.607 5.66093 17.607C6.47152 17.607 7.12264 16.9559 7.12264 16.1453C7.12264 15.3347 6.47152 14.6836 5.66093 14.6836Z" fill="#ADB1B9"/>
<path d="M45.3523 32.7949C44.5418 32.7949 43.8906 33.446 43.8906 34.2566C43.8906 35.0672 44.5418 35.7184 45.3523 35.7184C46.1629 35.7051 46.8141 35.0539 46.8141 34.2566C46.8141 33.446 46.1629 32.7949 45.3523 32.7949Z" fill="#ADB1B9"/>
<path d="M25.5141 14.1914C19.4015 14.1914 14.4316 19.1612 14.4316 25.2738C14.4316 31.3865 19.3882 36.3563 25.5141 36.3563C31.6267 36.343 36.5965 31.3865 36.5965 25.2738C36.5965 19.1612 31.6267 14.1914 25.5141 14.1914ZM26.71 33.1405V33.672C26.71 34.4029 26.112 35.0009 25.3812 35.0009C24.6503 35.0009 24.0524 34.4029 24.0524 33.672V33.0342C22.0458 32.3964 20.6771 30.536 20.6904 28.4232C20.6904 28.4099 20.6904 28.4099 20.6904 28.3966C20.6904 27.679 21.2751 27.0943 21.9927 27.0943C22.7235 27.0943 23.3215 27.6923 23.3215 28.4232C23.3215 29.6324 24.2916 30.6025 25.5008 30.6157C26.71 30.629 27.6934 29.6457 27.7066 28.4365C27.7199 27.2272 26.7366 26.2439 25.5274 26.2306C23.4145 26.2306 21.5542 24.8752 20.9163 22.8687C20.1057 20.3173 21.501 17.5932 24.0524 16.7693V16.2644C24.0524 15.5335 24.6503 14.9356 25.3812 14.9356C26.112 14.9356 26.71 15.5335 26.71 16.2644V16.663C28.876 17.1946 30.4042 19.1479 30.3909 21.3804C30.3776 22.1245 29.7796 22.7092 29.0355 22.7092C28.3046 22.7092 27.7066 22.1112 27.7066 21.3804C27.7066 20.1711 26.7233 19.1878 25.5141 19.1878C25.5008 19.1878 25.4875 19.1878 25.4742 19.1878C24.265 19.2011 23.2949 20.1977 23.3082 21.407C23.3215 22.6162 24.3181 23.5862 25.5274 23.5729C27.7598 23.5729 29.6999 25.0878 30.2447 27.2538C30.8958 29.8583 29.3145 32.4894 26.71 33.1405Z" fill="#ADB1B9"/>
<path d="M48.489 10.6309H2.53806C1.14279 10.6309 0 11.8268 0 13.2354V37.2872C0 38.6957 1.1295 39.8518 2.53806 39.8651H48.489C49.8975 39.8385 51.027 38.6957 51.027 37.2872V13.2354C51.027 11.8268 49.8842 10.6309 48.489 10.6309ZM5.66081 20.2782C3.38851 20.2782 1.54144 18.4311 1.54144 16.1588C1.54144 13.8865 3.38851 12.0394 5.66081 12.0394C7.93311 12.0394 9.78018 13.8865 9.78018 16.1588C9.78018 18.4311 7.93311 20.2782 5.66081 20.2782ZM25.5135 39.0146C17.9126 39.0146 11.7734 32.8489 11.7734 25.2613C11.7734 17.6737 17.9259 11.5212 25.5135 11.5212C33.1011 11.5345 39.2403 17.6737 39.2536 25.2613C39.2536 32.8622 33.1144 39.0146 25.5135 39.0146ZM45.3529 38.3768C43.0806 38.3768 41.2336 36.5297 41.2336 34.2574C41.2336 31.9851 43.0806 30.1381 45.3529 30.1381C47.6252 30.1514 49.4723 31.9851 49.4723 34.2574C49.4723 36.5297 47.6252 38.3768 45.3529 38.3768Z" fill="#ADB1B9"/>
</svg>
