<svg width="18" height="18" viewBox="0 0 18 18" fill="none" xmlns="http://www.w3.org/2000/svg">
<path d="M8.96484 0C13.9113 0 18 4.01836 18 8.96484C18 13.9113 13.9113 18 8.96484 18C4.01843 18 0 13.9113 0 8.96484C0 4.01836 4.01843 0 8.96484 0Z" fill="#FEDB41"/>
<path d="M0 8.96484C0 13.9113 4.01843 18 8.96484 18V0C4.01843 0 0 4.01836 0 8.96484Z" fill="#FFCC33"/>
<path d="M8.96484 2.10938C12.7407 2.10938 15.8906 5.18903 15.8906 8.96484C15.8906 12.7407 12.7407 15.8906 8.96484 15.8906C5.18899 15.8906 2.10938 12.7407 2.10938 8.96484C2.10938 5.18903 5.18899 2.10938 8.96484 2.10938Z" fill="#FEA832"/>
<path d="M2.10938 8.96484C2.10938 12.7407 5.18899 15.8906 8.96484 15.8906V2.10938C5.18899 2.10938 2.10938 5.18903 2.10938 8.96484Z" fill="#EA8333"/>
<path d="M7.91016 8.4375H8.4375V6.32812H7.91016C7.61481 6.32812 7.38281 6.56012 7.38281 6.85547C7.38281 7.55153 6.32812 7.55153 6.32812 6.85547C6.32812 5.98004 7.0347 5.27344 7.91016 5.27344H8.4375V4.74609C8.4375 4.39801 8.70117 4.21875 8.96484 4.21875C9.22852 4.21875 9.49219 4.39801 9.49219 4.74609V5.27344H10.0898C10.9653 5.27344 11.6719 5.98004 11.6719 6.85547V7.91016C11.6719 8.78558 10.9653 9.49219 10.0898 9.49219H9.49219V11.6719H10.0898C10.3852 11.6719 10.6172 11.4399 10.6172 11.1445C10.6172 10.4485 11.6719 10.4485 11.6719 11.1445C11.6719 12.02 10.9653 12.7266 10.0898 12.7266H9.49219V13.2539C9.49219 13.602 9.22852 13.7812 8.96484 13.7812C8.70117 13.7812 8.4375 13.602 8.4375 13.2539V12.7266H7.91016C7.0347 12.7266 6.32812 12.02 6.32812 11.1445V10.0195C6.32812 9.14411 7.0347 8.4375 7.91016 8.4375ZM9.49219 8.4375H10.0898C10.3852 8.4375 10.6172 8.2055 10.6172 7.91016V6.85547C10.6172 6.56012 10.3852 6.32812 10.0898 6.32812H9.49219V8.4375ZM7.38281 11.1445C7.38281 11.4399 7.61481 11.6719 7.91016 11.6719H8.4375V9.49219H7.91016C7.61481 9.49219 7.38281 9.72418 7.38281 10.0195V11.1445Z" fill="#FEDB41"/>
<path d="M7.91016 8.4375H8.4375V6.32812H7.91016C7.61481 6.32812 7.38281 6.56012 7.38281 6.85547C7.38281 7.55153 6.32812 7.55153 6.32812 6.85547C6.32812 5.98004 7.0347 5.27344 7.91016 5.27344H8.4375V4.74609C8.4375 4.39801 8.70117 4.21875 8.96484 4.21875V13.7812C8.70117 13.7812 8.4375 13.602 8.4375 13.2539V12.7266H7.91016C7.0347 12.7266 6.32812 12.02 6.32812 11.1445V10.0195C6.32812 9.14411 7.0347 8.4375 7.91016 8.4375ZM7.38281 11.1445C7.38281 11.4399 7.61481 11.6719 7.91016 11.6719H8.4375V9.49219H7.91016C7.61481 9.49219 7.38281 9.72418 7.38281 10.0195V11.1445Z" fill="#FFCC33"/>
</svg>
