<svg width="20" height="24" viewBox="0 0 20 24" fill="none" xmlns="http://www.w3.org/2000/svg">
<path fill-rule="evenodd" clip-rule="evenodd" d="M17 8H16V6.01C16.0328 2.72522 13.3978 0.0351646 10.113 0H9.949C6.68738 0.00418608 4.03559 2.63057 4 5.892V8H3C1.34315 8 0 9.34315 0 11V21C0 22.6569 1.34315 24 3 24H17C18.6569 24 20 22.6569 20 21V11C20 9.34315 18.6569 8 17 8ZM11 17.816V20H9V17.816C7.62245 17.329 6.79613 15.9203 7.0432 14.4803C7.29028 13.0402 8.53889 11.9876 10 11.9876C11.4611 11.9876 12.7097 13.0402 12.9568 14.4803C13.2039 15.9203 12.3775 17.329 11 17.816ZM6 8H14V6C14.0131 4.95056 13.6081 3.93905 12.8743 3.18863C12.1406 2.4382 11.1385 2.01054 10.089 2H9.95C7.78473 2.0026 6.02409 3.74586 6 5.911V8Z" fill="#D5D6DB"/>
</svg>
