<svg width="100" height="98" viewBox="0 0 100 98" fill="none" xmlns="http://www.w3.org/2000/svg">
<path d="M50.3047 25.5645V49.0427H74.4124" stroke="#ADB1B9" stroke-width="11" stroke-miterlimit="10" stroke-linecap="round" stroke-linejoin="round"/>
<path d="M6.10547 49.0429C6.10561 39.138 9.61334 29.5363 16.037 21.8571C22.4607 14.1779 31.4072 8.89129 41.3677 6.88886C51.3281 4.88642 61.6928 6.29074 70.7138 10.8649C79.7347 15.4391 86.8598 22.9033 90.8872 31.9985C94.9147 41.0937 95.5981 51.2633 92.8221 60.7921C90.0461 70.3208 83.9807 78.6257 75.6488 84.3058C67.3169 89.986 57.2285 92.6939 47.085 91.9727C36.9416 91.2516 27.3639 87.1456 19.9674 80.3472" stroke="#ADB1B9" stroke-width="11" stroke-miterlimit="10" stroke-linecap="round" stroke-linejoin="round"/>
<path d="M32.4532 71.4047L14.3028 94.9734L5.22755 69.9317L32.4532 71.4047Z" fill="#ADB1B9" stroke="#ADB1B9"/>
</svg>
