<svg width="140" height="140" viewBox="0 0 140 140" fill="none" xmlns="http://www.w3.org/2000/svg">
<path opacity="0.05" fill-rule="evenodd" clip-rule="evenodd" d="M70 140C108.66 140 140 108.66 140 70C140 31.3401 108.66 0 70 0C31.3401 0 0 31.3401 0 70C0 108.66 31.3401 140 70 140Z" fill="#37C86F"/>
<path opacity="0.1" fill-rule="evenodd" clip-rule="evenodd" d="M70 114.8C94.7424 114.8 114.8 94.7424 114.8 70C114.8 45.2577 94.7424 25.2 70 25.2C45.2577 25.2 25.2 45.2577 25.2 70C25.2 94.7424 45.2577 114.8 70 114.8Z" fill="#37C86F"/>
<path d="M50.9706 69.6451C49.8823 68.5554 48.1207 68.5503 47.0189 69.6506C45.9247 70.7434 45.9288 72.5215 47.0205 73.6145L59.6288 86.239C60.7239 87.3354 62.5061 87.3286 63.5887 86.2445L91.8229 57.9743C92.9149 56.881 92.9207 55.1164 91.8189 54.016C90.7247 52.9233 88.9464 52.9299 87.8529 54.0247L61.6116 80.2996L50.9706 69.6451Z" fill="#37C86F"/>
</svg>
