<svg width="30" height="30" viewBox="0 0 30 30" fill="none" xmlns="http://www.w3.org/2000/svg">
<path fill-rule="evenodd" clip-rule="evenodd" d="M15 30C23.2843 30 30 23.2843 30 15C30 6.71573 23.2843 0 15 0C6.71573 0 0 6.71573 0 15C0 23.2843 6.71573 30 15 30Z" fill="#F5F6F8"/>
<g clip-path="url(#clip0)">
<path d="M12.8333 16.0729C13.2936 16.0729 13.6667 15.6998 13.6667 15.2396C13.6667 14.7793 13.2936 14.4062 12.8333 14.4062C12.3731 14.4062 12 14.7793 12 15.2396C12 15.6998 12.3731 16.0729 12.8333 16.0729Z" fill="#1B315F"/>
<path d="M17.1663 16.0729C17.6266 16.0729 17.9997 15.6998 17.9997 15.2396C17.9997 14.7793 17.6266 14.4062 17.1663 14.4062C16.7061 14.4062 16.333 14.7793 16.333 15.2396C16.333 15.6998 16.7061 16.0729 17.1663 16.0729Z" fill="#1B315F"/>
<path d="M17.3333 17.667C17.1804 17.5784 16.9986 17.5541 16.8279 17.5995C16.6571 17.6449 16.5114 17.7562 16.4226 17.909C16.2805 18.1614 16.0738 18.3716 15.8237 18.5178C15.5735 18.664 15.289 18.7411 14.9993 18.7411C14.7096 18.7411 14.425 18.664 14.1749 18.5178C13.9248 18.3716 13.7181 18.1614 13.576 17.909C13.4837 17.7639 13.339 17.66 13.172 17.6191C13.0049 17.5782 12.8286 17.6034 12.6797 17.6894C12.5309 17.7755 12.421 17.9157 12.3731 18.0809C12.3252 18.246 12.3429 18.4233 12.4226 18.5756C12.6818 19.0303 13.0568 19.4083 13.5093 19.6712C13.9619 19.9341 14.4759 20.0726 14.9993 20.0726C15.5227 20.0726 16.0367 19.9341 16.4893 19.6712C16.9418 19.4083 17.3167 19.0303 17.576 18.5756C17.6638 18.4229 17.6876 18.2415 17.6422 18.0712C17.5967 17.9009 17.4856 17.7556 17.3333 17.667Z" fill="#1B315F"/>
<path d="M22.2583 14.6133C22.1032 13.5065 21.6956 12.4501 21.067 11.526C20.4383 10.6019 19.6055 9.83474 18.6329 9.284C18.5437 9.23382 18.4672 9.16376 18.4094 9.07925C18.3516 8.99473 18.314 8.89804 18.2996 8.79667C18.2227 8.24103 18.0049 7.71432 17.6669 7.26667C17.6144 7.19663 17.5486 7.13762 17.4733 7.09302C17.3979 7.04841 17.3146 7.01908 17.2279 7.0067C17.1412 6.99432 17.053 6.99913 16.9682 7.02086C16.8834 7.04259 16.8037 7.0808 16.7336 7.13333C16.6636 7.18586 16.6046 7.25167 16.56 7.327C16.5154 7.40234 16.486 7.48572 16.4736 7.57239C16.4613 7.65905 16.4661 7.74731 16.4878 7.83212C16.5095 7.91693 16.5478 7.99663 16.6003 8.06667C16.6433 8.12329 16.6832 8.18227 16.7196 8.24333C16.7363 8.27115 16.7444 8.30321 16.7431 8.3356C16.7418 8.36798 16.7311 8.39928 16.7123 8.42567C16.6935 8.45206 16.6674 8.47239 16.6372 8.48417C16.607 8.49595 16.574 8.49867 16.5423 8.492C16.0352 8.38582 15.5184 8.33265 15.0003 8.33333C13.2355 8.32491 11.5275 8.95663 10.1929 10.1114C8.85826 11.2662 7.9876 12.8656 7.74228 14.6133C7.50166 14.7737 7.3069 14.994 7.17716 15.2524C7.04742 15.5108 6.98715 15.7986 7.00228 16.0874C7.01742 16.3762 7.10743 16.656 7.26347 16.8995C7.41951 17.143 7.63621 17.3416 7.89228 17.476C8.29348 19.0569 9.21023 20.4589 10.4976 21.4603C11.7849 22.4617 13.3693 23.0054 15.0003 23.0054C16.6313 23.0054 18.2157 22.4617 19.503 21.4603C20.7903 20.4589 21.7071 19.0569 22.1083 17.476C22.3644 17.3416 22.5811 17.143 22.7371 16.8995C22.8931 16.656 22.9831 16.3762 22.9983 16.0874C23.0134 15.7986 22.9531 15.5108 22.8234 15.2524C22.6937 14.994 22.4989 14.7737 22.2583 14.6133ZM21.4003 16.3267C21.2721 16.3532 21.1545 16.4169 21.0622 16.5099C20.97 16.6028 20.9072 16.7209 20.8816 16.8493C20.6094 18.2093 19.8745 19.433 18.8019 20.3122C17.7293 21.1914 16.3852 21.6719 14.9983 21.6719C13.6114 21.6719 12.2673 21.1914 11.1946 20.3122C10.122 19.433 9.38712 18.2093 9.11495 16.8493C9.08967 16.7214 9.02744 16.6038 8.93596 16.5109C8.84448 16.418 8.72778 16.3539 8.60028 16.3267C8.52841 16.3115 8.46359 16.2729 8.41587 16.2171C8.36816 16.1612 8.34023 16.0912 8.33643 16.0178C8.33262 15.9444 8.35316 15.8719 8.39485 15.8114C8.43654 15.7509 8.49704 15.7059 8.56695 15.6833C8.69172 15.6435 8.80202 15.5679 8.88406 15.4658C8.96611 15.3637 9.01627 15.2397 9.02828 15.1093C9.10794 14.2069 9.39205 13.3344 9.85905 12.5581C10.326 11.7817 10.9637 11.1219 11.7236 10.6287C11.7624 10.6034 11.8061 10.5864 11.8518 10.5789C11.8975 10.5715 11.9443 10.5736 11.9892 10.5852C12.034 10.5968 12.0759 10.6176 12.1123 10.6463C12.1486 10.6751 12.1786 10.7111 12.2003 10.752C12.4703 11.2602 12.8736 11.6854 13.3668 11.9819C13.8601 12.2784 14.4248 12.435 15.0003 12.435C15.5758 12.435 16.1405 12.2784 16.6337 11.9819C17.127 11.6854 17.5303 11.2602 17.8003 10.752C17.8219 10.7111 17.8518 10.6752 17.8881 10.6465C17.9244 10.6178 17.9662 10.597 18.0109 10.5853C18.0559 10.5734 18.1029 10.5711 18.1488 10.5785C18.1947 10.5858 18.2386 10.6027 18.2776 10.628C19.0381 11.121 19.6763 11.7808 20.1438 12.5573C20.6113 13.3338 20.8957 14.2065 20.9756 15.1093C20.9876 15.2397 21.0378 15.3637 21.1198 15.4658C21.2019 15.5679 21.3122 15.6435 21.4369 15.6833C21.5069 15.7059 21.5674 15.7509 21.609 15.8114C21.6507 15.8719 21.6713 15.9444 21.6675 16.0178C21.6637 16.0912 21.6357 16.1612 21.588 16.2171C21.5403 16.2729 21.4755 16.3115 21.4036 16.3267H21.4003Z" fill="#1B315F"/>
</g>
<defs>
<clipPath id="clip0">
<rect width="16" height="16" fill="white" transform="translate(7 7)"/>
</clipPath>
</defs>
</svg>
