<svg width="24" height="24" viewBox="0 0 24 24" fill="none" xmlns="http://www.w3.org/2000/svg">
<path d="M20.523 12.8125H18.667C18.8562 13.3305 18.9595 13.8895 18.9595 14.4721V21.4869C18.9595 21.7298 18.9173 21.963 18.8403 22.1798H21.9088C23.055 22.1798 23.9875 21.2473 23.9875 20.1011V16.277C23.9876 14.3667 22.4334 12.8125 20.523 12.8125Z" fill="#ADB1B9"/>
<path d="M5.02806 14.4721C5.02806 13.8894 5.13142 13.3305 5.3206 12.8125H3.46454C1.55419 12.8125 0 14.3667 0 16.277V20.1012C0 21.2473 0.932486 22.1799 2.07872 22.1799H5.14726C5.07034 21.9629 5.02806 21.7298 5.02806 21.4869V14.4721Z" fill="#ADB1B9"/>
<path d="M14.1247 11.0078H9.88153C7.97118 11.0078 6.41699 12.562 6.41699 14.4724V21.4872C6.41699 21.8698 6.72721 22.1801 7.1099 22.1801H16.8964C17.2791 22.1801 17.5893 21.8699 17.5893 21.4872V14.4724C17.5893 12.562 16.0351 11.0078 14.1247 11.0078Z" fill="#ADB1B9"/>
<path d="M12 1.82031C9.70259 1.82031 7.8335 3.68941 7.8335 5.9869C7.8335 7.54526 8.69361 8.90628 9.96382 9.62084C10.5663 9.95975 11.2609 10.1534 12 10.1534C12.7392 10.1534 13.4337 9.95975 14.0362 9.62084C15.3065 8.90628 16.1666 7.54521 16.1666 5.9869C16.1666 3.68946 14.2975 1.82031 12 1.82031Z" fill="#ADB1B9"/>
<path d="M4.69952 5.70312C2.98131 5.70312 1.5835 7.10094 1.5835 8.81915C1.5835 10.5374 2.98131 11.9352 4.69952 11.9352C5.13536 11.9352 5.55039 11.8449 5.92741 11.6826C6.57926 11.402 7.11673 10.9052 7.44931 10.2829C7.68274 9.84618 7.81554 9.34794 7.81554 8.81915C7.81554 7.10099 6.41772 5.70312 4.69952 5.70312Z" fill="#ADB1B9"/>
<path d="M19.3245 5.70312C17.6063 5.70312 16.2085 7.10094 16.2085 8.81915C16.2085 9.34799 16.3413 9.84623 16.5747 10.2829C16.9073 10.9052 17.4448 11.402 18.0966 11.6826C18.4736 11.8449 18.8887 11.9352 19.3245 11.9352C21.0427 11.9352 22.4405 10.5374 22.4405 8.81915C22.4405 7.10094 21.0427 5.70312 19.3245 5.70312Z" fill="#ADB1B9"/>
</svg>
