<svg width="34" height="31" viewBox="0 0 34 31" fill="none" xmlns="http://www.w3.org/2000/svg">
<path d="M6.84146 26.4998C6.84146 26.4998 5.42878 26.3514 5.42878 24.9081V23.9168L0.64731 9.78881C0.64731 9.78881 0.237778 8.47178 1.5869 8.06679L24.8196 1.09406C24.8196 1.09406 26.1358 0.789699 26.5366 2.01551L28.946 9.38674H31.1032C31.1032 9.38674 32.5371 9.53228 32.5371 10.9978V26.4999L6.84146 26.4998Z" fill="#C4C4C4"/>
<path d="M18.7826 26.761H6.84948C5.93464 26.761 5.19043 26.048 5.19043 25.1709V10.8066C5.19043 9.92991 5.93474 9.2168 6.84948 9.2168H31.1112C32.0261 9.2168 32.7704 9.92991 32.7704 10.8066V18.9125C32.7704 19.0315 32.6697 19.1279 32.5456 19.1279C32.4216 19.1279 32.3209 19.0315 32.3209 18.9125V10.8066C32.3209 10.1676 31.7784 9.64759 31.1113 9.64759H6.84948C6.18248 9.64759 5.63994 10.1675 5.63994 10.8066V25.1709C5.63994 25.8101 6.18248 26.3299 6.84948 26.3299H18.7826C18.9066 26.3299 19.0073 26.4263 19.0073 26.5455C19.0073 26.6646 18.9065 26.761 18.7826 26.761Z" fill="white"/>
<path d="M5.41519 24.1436C5.3204 24.1436 5.23209 24.0858 5.20134 23.9945L0.441483 9.89985C0.167611 9.06162 0.654943 8.16803 1.52784 7.90585L24.6804 0.954013C25.101 0.827299 25.5499 0.866085 25.9437 1.0635C26.3375 1.26091 26.6272 1.59182 26.7595 1.99549L29.169 9.36691C29.2061 9.48045 29.1401 9.60114 29.0217 9.63682C28.9038 9.67184 28.7773 9.60933 28.74 9.49561L26.3306 2.12447C26.2344 1.83056 26.023 1.58928 25.7355 1.44533C25.4482 1.30139 25.1215 1.27277 24.8148 1.36522L1.66212 8.31696C1.02607 8.50807 0.670463 9.15933 0.869876 9.76918L5.62914 23.8617C5.66726 23.9752 5.60262 24.0962 5.48455 24.1333C5.46146 24.14 5.43808 24.1436 5.41519 24.1436Z" fill="white"/>
<path d="M13.0338 20.1422H9.87199C9.21894 20.1422 8.6875 19.6332 8.6875 19.0069V16.9696C8.6875 16.3434 9.21884 15.834 9.87199 15.834H13.0338C13.6868 15.834 14.2183 16.3434 14.2183 16.9696V19.0069C14.2183 19.6332 13.6868 20.1422 13.0338 20.1422ZM9.87199 16.2649C9.46668 16.2649 9.13701 16.5811 9.13701 16.9697V19.007C9.13701 19.3956 9.46668 19.7118 9.87199 19.7118H13.0338C13.4391 19.7118 13.7687 19.3956 13.7687 19.007V16.9697C13.7687 16.5811 13.4391 16.2649 13.0338 16.2649H9.87199Z" fill="white"/>
<path d="M12.2279 17.3242H10.7695V18.7218H12.2279V17.3242Z" fill="white"/>
<path d="M11.502 20.1413C11.378 20.1413 11.2773 20.0449 11.2773 19.9262V18.7193C11.2773 18.6004 11.378 18.5039 11.502 18.5039C11.6262 18.5039 11.7269 18.6004 11.7269 18.7193V19.9262C11.7269 20.0449 11.6261 20.1413 11.502 20.1413Z" fill="white"/>
<path d="M13.9955 18.2061H12.2306C12.1064 18.2061 12.0059 18.1097 12.0059 17.9908C12.0059 17.8718 12.1064 17.7754 12.2306 17.7754H13.9956C14.1196 17.7754 14.2203 17.8718 14.2203 17.9908C14.2203 18.1096 14.1195 18.2061 13.9955 18.2061Z" fill="white"/>
<path d="M9.43475 9.61891C9.33917 9.61891 9.25047 9.56016 9.22031 9.4679C9.18318 9.35437 9.24909 9.23359 9.36766 9.198L27.1324 3.8636C27.2501 3.82764 27.3767 3.8909 27.4141 4.00481C27.4513 4.11835 27.3853 4.23913 27.2668 4.27471L9.50195 9.60902C9.47974 9.6158 9.45705 9.61891 9.43475 9.61891Z" fill="white"/>
<path d="M1.32938 12.0487C1.2337 12.0487 1.1451 11.9898 1.11484 11.8977C1.07771 11.7841 1.14363 11.6634 1.26219 11.6278L5.3689 10.3946C5.48698 10.3592 5.61321 10.4221 5.65054 10.5358C5.68767 10.6494 5.62175 10.7701 5.50319 10.8057L1.39648 12.0388C1.37428 12.0456 1.35158 12.0487 1.32938 12.0487Z" fill="white"/>
<path d="M19.805 9.64827C19.7093 9.64827 19.6207 9.58943 19.5904 9.49727C19.5533 9.38374 19.6193 9.26305 19.7378 9.22737L28.0852 6.72087C28.2033 6.68528 28.3295 6.74835 28.3668 6.86208C28.4039 6.97552 28.3379 7.0963 28.2195 7.13189L19.8721 9.63848C19.8499 9.64507 19.8272 9.64827 19.805 9.64827Z" fill="white"/>
<path d="M2.28445 14.9045C2.18877 14.9045 2.10017 14.8457 2.06991 14.7535C2.03278 14.64 2.09879 14.5192 2.21726 14.4836L5.25078 13.5725C5.36827 13.5367 5.49528 13.6 5.53241 13.7137C5.56955 13.8272 5.50363 13.9479 5.38507 13.9836L2.35145 14.8946C2.32935 14.9014 2.30675 14.9045 2.28445 14.9045Z" fill="white"/>
<path d="M11.502 17.5378C11.378 17.5378 11.2773 17.4413 11.2773 17.3224V16.0494C11.2773 15.9304 11.378 15.834 11.502 15.834C11.6262 15.834 11.7269 15.9304 11.7269 16.0494V17.3224C11.7269 17.4413 11.6261 17.5378 11.502 17.5378Z" fill="white"/>
<path d="M33.5368 22.4671C33.5368 26.6825 29.9709 30.1002 25.5723 30.1002C21.1734 30.1002 17.6074 26.6825 17.6074 22.4671C17.6074 18.2517 21.1734 14.834 25.5723 14.834C29.9709 14.834 33.5368 18.2517 33.5368 22.4671Z" fill="white"/>
<path d="M25.5733 30.2928C21.0721 30.2928 17.4102 26.7834 17.4102 22.4697C17.4102 18.156 21.072 14.6465 25.5733 14.6465C30.0743 14.6465 33.736 18.1559 33.736 22.4697C33.736 26.7833 30.0743 30.2928 25.5733 30.2928ZM25.5733 15.0265C21.2907 15.0265 17.8066 18.3656 17.8066 22.4697C17.8066 26.5738 21.2908 29.9128 25.5733 29.9128C29.8556 29.9128 33.3396 26.5737 33.3396 22.4697C33.3395 18.3655 29.8556 15.0265 25.5733 15.0265Z" fill="#C4C4C4"/>
<path d="M33.3923 22.6866H17.752C17.6279 22.6866 17.5273 22.5902 17.5273 22.4711C17.5273 22.3523 17.6279 22.2559 17.752 22.2559H33.3923C33.5164 22.2559 33.617 22.3523 33.617 22.4711C33.617 22.5902 33.5164 22.6866 33.3923 22.6866Z" fill="#C4C4C4"/>
<path d="M25.5722 30.179C23.3216 30.179 21.5586 26.7928 21.5586 22.4694C21.5586 18.1464 23.3216 14.7598 25.5722 14.7598C27.8228 14.7598 29.5858 18.1464 29.5858 22.4694C29.5858 26.7928 27.8228 30.179 25.5722 30.179ZM25.5722 15.1906C23.6068 15.1906 22.008 18.4561 22.008 22.4694C22.008 26.483 23.6068 29.7486 25.5722 29.7486C27.5375 29.7486 29.1363 26.483 29.1363 22.4694C29.1363 18.456 27.5375 15.1906 25.5722 15.1906Z" fill="#C4C4C4"/>
<path d="M25.5714 30.1791C25.4474 30.1791 25.3467 30.0827 25.3467 29.9639V14.9752C25.3467 14.8562 25.4474 14.7598 25.5714 14.7598C25.6956 14.7598 25.7962 14.8562 25.7962 14.9752V29.9639C25.7962 30.0826 25.6956 30.1791 25.5714 30.1791Z" fill="#C4C4C4"/>
</svg>
