<svg width="20" height="15" viewBox="0 0 20 15" fill="none" xmlns="http://www.w3.org/2000/svg">
<path d="M2.76802 8.33941L4.32991 9.9531C4.64443 10.2795 4.64443 10.8105 4.32805 11.139C4.17461 11.2961 3.97154 11.3828 3.75557 11.3828C3.53952 11.3828 3.33644 11.2961 3.18296 11.1377L0.241876 8.09862C0.165657 8.02157 0.104902 7.92904 0.0596097 7.81649C0.0200447 7.71494 -3.29961e-07 7.6085 -3.39322e-07 7.50142C-3.48761e-07 7.39345 0.0200446 7.28741 0.0620437 7.18141C0.103852 7.07566 0.164655 6.98239 0.23801 6.90979L3.18295 3.86575C3.33558 3.70727 3.53947 3.62022 3.75557 3.62022C3.97153 3.62022 4.17571 3.70727 4.32991 3.86629C4.64385 4.19236 4.64385 4.72283 4.32934 5.05072L2.76802 6.66426L5.4867 6.66426L5.4867 8.3397L2.76802 8.3397L2.76802 8.33941Z" fill="#ADB1B9"/>
<path d="M17.2992 15L8.18749 15C6.69781 15 5.48671 13.7475 5.48671 12.2082L5.48671 12.0702L5.48671 8.33962L13.4798 8.33962C13.9269 8.33962 14.2912 7.96378 14.2912 7.50133C14.2912 7.04002 13.9272 6.66388 13.4798 6.66388L5.48671 6.66388L5.48671 5.25291L5.48671 4.01373L5.48671 2.79142C5.48671 1.25255 6.69781 8.47797e-07 8.18749 7.17565e-07L17.2992 -7.90087e-08C18.7889 -2.0924e-07 20 1.25255 20 2.79141L20 12.2083C20 13.7475 18.7889 15 17.2992 15Z" fill="#ADB1B9"/>
</svg>
