<svg width="29" height="29" viewBox="0 0 29 29" fill="none" xmlns="http://www.w3.org/2000/svg">
<g clip-path="url(#clip0)">
<path d="M9.95551 14.4287H2.92188V15.9446H9.95551V14.4287Z" fill="#A6AEBB"/>
<path d="M2.25422 17.2183C1.82976 17.2183 1.46595 16.7939 1.5266 16.3694C2.25422 11.2761 0.0713621 6.30404 0.0713621 6.24344C-0.110543 5.87963 0.0713621 5.45517 0.435172 5.27327C0.798981 5.09136 1.22344 5.27327 1.40535 5.63708C1.5266 5.81898 3.52755 10.4878 3.10315 15.7025H10.0762C10.5006 15.7025 10.8038 16.0663 10.8038 16.4301C10.8038 16.8546 10.44 17.1577 10.0762 17.1577L2.25422 17.2183Z" fill="#A6AEBB"/>
<path d="M2.01219 23.7657C1.58773 23.6444 1.40583 23.22 1.52713 22.8562L3.52808 16.3076C3.64934 15.8831 4.0738 15.7012 4.43761 15.8225C4.86207 15.9438 5.04398 16.3683 4.92267 16.7321L2.92172 23.22C2.80041 23.6444 2.4366 23.887 2.01219 23.7657Z" fill="#A6AEBB"/>
<path d="M9.3489 23.2208L7.34795 16.6723C7.2267 16.3085 7.4692 15.884 7.83301 15.7627C8.25747 15.6415 8.62128 15.884 8.74253 16.2478L10.7435 22.7964C10.8647 23.2208 10.6222 23.5846 10.2584 23.7059C9.89461 23.8879 9.4702 23.6453 9.3489 23.2208Z" fill="#A6AEBB"/>
<path d="M9.71148 19.4617H2.61719V20.735H9.71148V19.4617Z" fill="#A6AEBB"/>
<path d="M15.655 11.761H13.8359V23.7667H15.655V11.761Z" fill="#A6AEBB"/>
<path d="M26.569 11.761H24.75V23.7667H26.569V11.761Z" fill="#A6AEBB"/>
<path d="M28.0848 10.7302H12.3198C11.7741 10.7302 11.3496 11.1547 11.3496 11.7004C11.3496 12.2461 11.7741 12.6706 12.3198 12.6706H28.0242C28.5699 12.6706 28.9944 12.2461 28.9944 11.7004C29.055 11.2153 28.6305 10.7302 28.0848 10.7302Z" fill="#A6AEBB"/>
<path d="M18.6259 16.4905L14.624 10.7302H26.8116L18.6259 16.4905Z" fill="#A6AEBB"/>
<path d="M25.2356 10.7302H24.2048L18.9902 14.429L16.3829 10.7302H15.6553L18.8689 15.2779L25.2356 10.7302Z" fill="#F2F2F2"/>
</g>
<defs>
<clipPath id="clip0">
<rect width="29" height="29" fill="white"/>
</clipPath>
</defs>
</svg>
