<svg width="26" height="26" viewBox="0 0 26 26" fill="none" xmlns="http://www.w3.org/2000/svg">
<path fill-rule="evenodd" clip-rule="evenodd" d="M25.5376 23.2123L19.7472 17.4219C21.0846 15.6076 21.875 13.3653 21.875 10.9385C21.875 4.89786 16.9781 0.000976562 10.9375 0.000976562C4.89689 0.000976562 0 4.89786 0 10.9385C0 16.9791 4.89689 21.876 10.9375 21.876C13.6751 21.876 16.1777 20.8702 18.0961 19.2081L23.8142 24.9262C24.2921 25.4041 25.0589 25.4014 25.5335 24.9268C26.0114 24.4489 26.0099 23.6846 25.5376 23.2123ZM10.9358 2.43164C15.634 2.43164 19.4427 6.24033 19.4427 10.9386C19.4427 15.6368 15.634 19.4455 10.9358 19.4455C6.23752 19.4455 2.42883 15.6368 2.42883 10.9386C2.42883 6.24033 6.23752 2.43164 10.9358 2.43164Z" fill="white"/>
</svg>
