<svg width="61" height="50" viewBox="0 0 61 50" fill="none" xmlns="http://www.w3.org/2000/svg">
<path d="M12.3278 43.5475C12.3278 43.5475 9.80064 43.2952 9.80064 40.8417V39.1564L1.24713 15.1388C1.24713 15.1388 0.514519 12.8999 2.92796 12.2114L44.4887 0.357747C44.4887 0.357747 46.8432 -0.159661 47.5602 1.92421L51.8704 14.4553H55.7294C55.7294 14.4553 58.2945 14.7027 58.2945 17.1941V43.5476H12.3278V43.5475Z" fill="#1B315F"/>
<path d="M33.6889 43.9931H12.3419C10.7053 43.9931 9.37402 42.781 9.37402 41.2899V16.8707C9.37402 15.3803 10.7055 14.168 12.3419 14.168H55.7435C57.38 14.168 58.7115 15.3803 58.7115 16.8707V30.6506C58.7115 30.8529 58.5314 31.0168 58.3095 31.0168C58.0875 31.0168 57.9074 30.8529 57.9074 30.6506V16.8707C57.9074 15.7844 56.937 14.9003 55.7437 14.9003H12.3419C11.1487 14.9003 10.1782 15.7842 10.1782 16.8707V41.2899C10.1782 42.3765 11.1487 43.2603 12.3419 43.2603H33.6889C33.9108 43.2603 34.0909 43.4242 34.0909 43.6268C34.0909 43.8292 33.9106 43.9931 33.6889 43.9931Z" fill="white"/>
<path d="M9.77503 39.5467C9.60545 39.5467 9.44747 39.4485 9.39247 39.2932L0.877612 15.3323C0.387685 13.9073 1.25947 12.3882 2.82098 11.9425L44.2383 0.124361C44.9907 -0.0910527 45.7938 -0.0251163 46.4983 0.310487C47.2026 0.646089 47.721 1.20863 47.9575 1.89488L52.268 14.4263C52.3344 14.6193 52.2163 14.8245 52.0044 14.8851C51.7935 14.9447 51.5672 14.8384 51.5006 14.6451L47.1903 2.11413C47.0183 1.61449 46.6401 1.20431 46.1258 0.959607C45.6119 0.714906 45.0275 0.666254 44.4788 0.823413L3.0612 12.6414C1.92336 12.9663 1.28723 14.0734 1.64396 15.1101L10.1578 39.0674C10.2259 39.2604 10.1103 39.4661 9.89909 39.5291C9.85779 39.5405 9.81597 39.5467 9.77503 39.5467Z" fill="white"/>
<path d="M23.4049 32.7458H17.7488C16.5806 32.7458 15.6299 31.8806 15.6299 30.8158V27.3524C15.6299 26.2879 16.5804 25.4219 17.7488 25.4219H23.4049C24.5732 25.4219 25.5238 26.2879 25.5238 27.3524V30.8158C25.5238 31.8806 24.5732 32.7458 23.4049 32.7458ZM17.7488 26.1544C17.0237 26.1544 16.434 26.6919 16.434 27.3526V30.816C16.434 31.4767 17.0237 32.0142 17.7488 32.0142H23.4049C24.13 32.0142 24.7195 31.4767 24.7195 30.816V27.3526C24.7195 26.6919 24.13 26.1544 23.4049 26.1544H17.7488Z" fill="white"/>
<path d="M21.9643 27.9512H19.3555V30.3271H21.9643V27.9512Z" fill="white"/>
<path d="M20.6626 32.7445C20.4409 32.7445 20.2607 32.5806 20.2607 32.3788V30.3271C20.2607 30.125 20.4409 29.9609 20.6626 29.9609C20.8847 29.9609 21.0649 30.125 21.0649 30.3271V32.3788C21.0649 32.5806 20.8846 32.7445 20.6626 32.7445Z" fill="white"/>
<path d="M25.1246 29.449H21.9675C21.7454 29.449 21.5654 29.2851 21.5654 29.083C21.5654 28.8807 21.7454 28.7168 21.9675 28.7168H25.1248C25.3467 28.7168 25.5268 28.8807 25.5268 29.083C25.5268 29.2849 25.3465 29.449 25.1246 29.449Z" fill="white"/>
<path d="M16.9666 14.8559C16.7956 14.8559 16.6369 14.756 16.583 14.5991C16.5165 14.4061 16.6345 14.2008 16.8466 14.1403L48.6257 5.07183C48.8363 5.0107 49.0628 5.11824 49.1296 5.31189C49.1962 5.5049 49.0781 5.71023 48.8661 5.77073L17.0868 14.839C17.0471 14.8506 17.0065 14.8559 16.9666 14.8559Z" fill="white"/>
<path d="M2.46676 18.9849C2.2956 18.9849 2.13709 18.8849 2.08297 18.7282C2.01655 18.5352 2.13446 18.3299 2.34656 18.2694L9.69301 16.173C9.90423 16.1128 10.13 16.2197 10.1968 16.4131C10.2632 16.6061 10.1453 16.8112 9.93323 16.8719L2.58678 18.9681C2.54707 18.9796 2.50647 18.9849 2.46676 18.9849Z" fill="white"/>
<path d="M35.5175 14.9036C35.3464 14.9036 35.1879 14.8036 35.1337 14.6469C35.0673 14.4539 35.1854 14.2487 35.3973 14.1881L50.3299 9.92703C50.5411 9.86654 50.767 9.97377 50.8337 10.1671C50.9002 10.3599 50.7821 10.5653 50.5701 10.6258L35.6375 14.887C35.5978 14.8982 35.5572 14.9036 35.5175 14.9036Z" fill="white"/>
<path d="M4.17475 23.84C4.00359 23.84 3.84509 23.74 3.79096 23.5833C3.72454 23.3903 3.84263 23.1849 4.05455 23.1245L9.48118 21.5756C9.69135 21.5148 9.91857 21.6223 9.98499 21.8157C10.0514 22.0087 9.9335 22.2138 9.7214 22.2745L4.2946 23.8232C4.25506 23.8347 4.21464 23.84 4.17475 23.84Z" fill="white"/>
<path d="M20.6626 28.3184C20.4409 28.3184 20.2607 28.1544 20.2607 27.9523V25.788C20.2607 25.5858 20.4409 25.4219 20.6626 25.4219C20.8847 25.4219 21.0649 25.5858 21.0649 25.788V27.9523C21.0649 28.1544 20.8846 28.3184 20.6626 28.3184Z" fill="white"/>
<path d="M60.0818 36.7009C60.0818 43.867 53.7028 49.6773 45.8342 49.6773C37.965 49.6773 31.5859 43.867 31.5859 36.7009C31.5859 29.5347 37.965 23.7246 45.8342 23.7246C53.7028 23.7246 60.0818 29.5347 60.0818 36.7009Z" fill="white"/>
<path d="M45.8353 50.0011C37.7832 50.0011 31.2324 44.0351 31.2324 36.7018C31.2324 29.3685 37.783 23.4023 45.8353 23.4023C53.8872 23.4023 60.4376 29.3683 60.4376 36.7018C60.4376 44.035 53.8872 50.0011 45.8353 50.0011ZM45.8353 24.0484C38.1743 24.0484 31.9417 29.7249 31.9417 36.7018C31.9417 43.6787 38.1745 49.3552 45.8353 49.3552C53.496 49.3552 59.7285 43.6786 59.7285 36.7018C59.7283 29.7247 53.496 24.0484 45.8353 24.0484Z" fill="#A6AEBB"/>
<path d="M59.824 37.0642H31.8452C31.6233 37.0642 31.4434 36.9003 31.4434 36.6979C31.4434 36.4959 31.6233 36.332 31.8452 36.332H59.824C60.0459 36.332 60.2261 36.4959 60.2261 36.6979C60.2261 36.9003 60.0459 37.0642 59.824 37.0642Z" fill="#A6AEBB"/>
<path d="M45.8332 49.8065C41.8071 49.8065 38.6533 44.0498 38.6533 36.7002C38.6533 29.351 41.8071 23.5938 45.8332 23.5938C49.8593 23.5938 53.013 29.351 53.013 36.7002C53.013 44.0498 49.8593 49.8065 45.8332 49.8065ZM45.8332 24.3261C42.3174 24.3261 39.4573 29.8775 39.4573 36.7002C39.4573 43.5233 42.3174 49.0748 45.8332 49.0748C49.3489 49.0748 52.2091 43.5233 52.2091 36.7002C52.2091 29.8774 49.3489 24.3261 45.8332 24.3261Z" fill="#A6AEBB"/>
<path d="M45.8337 49.8066C45.6118 49.8066 45.4316 49.6427 45.4316 49.4408V23.9599C45.4316 23.7576 45.6118 23.5938 45.8337 23.5938C46.0558 23.5938 46.2358 23.7576 46.2358 23.9599V49.4408C46.2358 49.6426 46.0558 49.8066 45.8337 49.8066Z" fill="#A6AEBB"/>
</svg>
