<svg width="34" height="34" viewBox="0 0 34 34" fill="none" xmlns="http://www.w3.org/2000/svg">
<g clip-path="url(#clip0)">
<path d="M16.9994 5.05176C23.5985 5.05176 28.9473 10.4006 28.9473 16.9997C28.9473 21.7545 26.1626 25.8478 22.1419 27.7708L21.7679 20.5448C21.7679 20.5448 22.4714 20.3139 22.6253 20.2388C24.1173 19.5816 25.2012 17.6465 25.2012 15.135C25.2012 12.3945 23.0758 10.034 21.021 10.0145C21.0184 10.0145 21.0184 10.0145 21.0167 10.0145C21.0158 10.0145 21.0141 10.0145 21.0133 10.0145C18.958 10.0339 16.8326 12.3944 16.8326 15.135C16.8326 17.6465 17.9177 19.5807 19.4067 20.2388C19.4184 20.2439 20.2709 20.5535 20.2709 20.5535L19.8533 28.588C18.9368 28.8135 17.9839 28.9459 16.9978 28.9459C15.6679 28.9459 14.3942 28.7194 13.1993 28.319L12.8292 21.1587C13.8045 20.9443 14.6363 20.3234 15.1577 19.5444C15.8036 18.5769 14.6605 10.0137 14.6605 10.0137H13.9169V18.0494H13.1784V10.0145H12.3708V18.0512H11.6359V10.0145H10.798V18.0512H10.0605V10.0145H9.48981C9.48981 10.0145 8.34671 18.5778 8.99342 19.5453C9.50968 20.3166 10.3337 20.9357 11.2969 21.1553C11.3141 21.1614 11.3298 21.1674 11.3298 21.1674L11.0081 27.3265C7.44913 25.2573 5.05057 21.413 5.05057 16.9998C5.05235 10.4006 10.4012 5.05176 16.9994 5.05176Z" fill="#ADB1B9"/>
<path d="M23.4526 13.9204C23.4098 13.7461 23.3523 13.5806 23.3497 13.5776C23.331 13.5123 23.3657 13.4457 23.4366 13.4034C23.504 13.367 23.5862 13.3857 23.6242 13.444C23.6242 13.444 23.7059 13.5742 23.8244 13.7665C23.9208 13.9321 24.0634 14.1967 24.1608 14.5261C24.2451 14.8149 24.3458 15.1988 24.3912 15.6285C24.4106 15.8542 24.415 16.0579 24.4081 16.2675C24.3912 16.5065 24.3549 16.711 24.2857 16.945C24.051 17.6121 23.8702 18.258 23.2179 18.8952C23.0116 19.1071 22.7998 19.2515 22.6468 19.3578L22.5927 19.3958C22.5598 19.4175 22.5283 19.4374 22.4972 19.4556C22.3687 19.523 22.2828 19.5472 22.2671 19.5506C22.2032 19.5679 22.1374 19.5368 22.1103 19.4849C22.0847 19.4304 22.1033 19.3621 22.1565 19.319C22.1565 19.319 22.2309 19.2541 22.3264 19.1331C22.3916 19.0595 22.4626 18.9532 22.5451 18.8331C22.6034 18.7483 22.6722 18.6523 22.7362 18.5589C23.054 18.0738 23.2372 17.3968 23.4906 16.7033C23.5403 16.5528 23.581 16.3579 23.5961 16.1923C23.6164 16.0012 23.6259 15.817 23.6259 15.6462C23.6333 15.2494 23.6156 14.9087 23.581 14.6324C23.5412 14.3207 23.5101 14.0868 23.4526 13.9204Z" fill="#ADB1B9"/>
<path d="M16.9995 2.8335C24.8104 2.8335 31.167 9.18876 31.167 17.0001C31.167 24.8098 24.8104 31.1668 16.9995 31.1668C9.18894 31.1668 2.83361 24.8098 2.83361 17.0001C2.83369 9.18876 9.18894 2.8335 16.9995 2.8335ZM16.9995 30.1102C24.229 30.1102 30.1108 24.2288 30.1108 17.0001C30.1108 9.77065 24.229 3.88877 16.9995 3.88877C9.77083 3.88877 3.88852 9.77065 3.88852 17.0001C3.88859 24.2288 9.77091 30.1102 16.9995 30.1102Z" fill="#ADB1B9"/>
</g>
<defs>
<clipPath id="clip0">
<rect width="28.3333" height="28.3333" fill="white" transform="matrix(-1 0 0 1 31.167 2.8335)"/>
</clipPath>
</defs>
</svg>
