<svg width="30" height="30" viewBox="0 0 30 30" fill="none" xmlns="http://www.w3.org/2000/svg">
<path fill-rule="evenodd" clip-rule="evenodd" d="M15 30C23.2843 30 30 23.2843 30 15C30 6.71573 23.2843 0 15 0C6.71573 0 0 6.71573 0 15C0 23.2843 6.71573 30 15 30Z" fill="#F5F6F8"/>
<path d="M16 18.836C16 18.232 15.735 17.657 15.262 17.282C14.539 16.708 13.285 16 11.5 16C9.715 16 8.461 16.708 7.738 17.282C7.265 17.657 7 18.232 7 18.836V20H16V18.836Z" fill="#1B315F"/>
<path d="M11.5 15C12.8807 15 14 13.8807 14 12.5C14 11.1193 12.8807 10 11.5 10C10.1193 10 9 11.1193 9 12.5C9 13.8807 10.1193 15 11.5 15Z" fill="#1B315F"/>
<path d="M18.5 15C19.8807 15 21 13.8807 21 12.5C21 11.1193 19.8807 10 18.5 10C17.1193 10 16 11.1193 16 12.5C16 13.8807 17.1193 15 18.5 15Z" fill="#1B315F"/>
<path d="M22.2624 17.282C21.5394 16.708 20.2854 16 18.5004 16C17.9394 16 17.4374 16.075 16.9814 16.189C17.6254 16.909 18.0004 17.836 18.0004 18.836V20H23.0004V18.836C23.0004 18.232 22.7354 17.657 22.2624 17.282Z" fill="#1B315F"/>
</svg>
