<svg width="21" height="21" viewBox="0 0 21 21" fill="none" xmlns="http://www.w3.org/2000/svg">
<path d="M10.6699 5.12988V10.0864H15.7593" stroke="#C4A732" stroke-width="2" stroke-miterlimit="10" stroke-linecap="round" stroke-linejoin="round"/>
<path d="M1.33887 10.0869C1.3389 7.99585 2.07941 5.96879 3.43552 4.34763C4.79162 2.72646 6.68033 1.61039 8.78307 1.18765C10.8858 0.76491 13.0739 1.06138 14.9783 2.02705C16.8827 2.99272 18.3869 4.56849 19.2372 6.4886C20.0874 8.4087 20.2317 10.5556 19.6456 12.5673C19.0596 14.5789 17.7791 16.3322 16.0202 17.5313C14.2612 18.7305 12.1314 19.3022 9.99007 19.1499C7.84869 18.9977 5.82674 18.1308 4.26526 16.6956" stroke="#C4A732" stroke-width="2" stroke-miterlimit="10" stroke-linecap="round" stroke-linejoin="round"/>
<path d="M6.13122 15.1612L3.19544 18.9734L1.72755 14.9229L6.13122 15.1612Z" fill="#C4A732" stroke="#C4A732"/>
</svg>
