<svg width="47" height="50" viewBox="0 0 47 50" fill="none" xmlns="http://www.w3.org/2000/svg">
<path d="M11.7145 6.08131L13.0705 6.67297C12.1299 7.24888 11.7054 7.81203 11.8128 8.34833C11.9233 8.90244 12.4298 9.38015 13.3196 9.7687C14.1393 10.1265 15.1051 10.3202 16.2725 10.361C17.4237 10.4009 19.1996 10.0771 21.5528 9.39783C22.1374 9.22866 22.5956 9.1302 22.9138 9.10568C23.2253 9.08116 23.4764 9.11613 23.7046 9.21601C23.8616 9.28453 24.3404 9.49306 23.1373 10.0185C22.3558 10.3596 21.5466 10.5 20.7326 10.436C20.0886 10.3858 19.4364 10.5045 19.066 10.74L18.343 11.1998C18.027 11.4006 17.963 11.6574 18.1714 11.8832C18.3794 12.109 18.8335 12.2739 19.3797 12.323C21.1652 12.4832 22.9275 12.2777 24.6207 11.7149L26.451 12.5141C27.1015 12.798 28.1553 12.798 28.8055 12.5147C29.4555 12.2307 29.4555 11.7705 28.8055 11.4868L26.9114 10.6599C27.7434 10.1313 28.181 9.59707 28.2117 9.06864C28.2483 8.4504 27.7489 7.91074 26.7278 7.4649C25.999 7.14668 25.1677 6.94976 24.2584 6.87982C23.3491 6.80924 22.4871 6.84859 21.698 6.99661C20.9195 7.14294 19.7346 7.43819 18.1835 7.87229C17.5085 8.05927 17.0506 8.15463 16.8212 8.15605C16.602 8.15721 16.4054 8.1225 16.2532 8.05579C15.7127 7.82041 16.1668 7.52271 16.6429 7.31495C17.2339 7.057 17.8645 6.93518 18.5168 6.95234C19.1708 6.96964 19.7876 6.81698 20.091 6.5638L20.5104 6.21396C20.7757 5.99278 20.7615 5.72747 20.4734 5.51145C20.1855 5.29582 19.6635 5.15956 19.0916 5.15104C17.8503 5.13323 16.6532 5.29918 15.4487 5.65598L14.0687 5.05374C13.4184 4.76985 12.3645 4.76985 11.7142 5.05374C11.0646 5.33738 11.0646 5.79754 11.7145 6.08131Z" fill="#A6AEBB"/>
<path d="M40.3528 13.422C40.463 12.9637 40.5194 12.497 40.5194 12.0239V10.5286C40.5194 7.54073 38.2886 4.80877 34.238 2.8361C30.4827 1.00718 25.5184 0 20.2597 0C15.0009 0 10.0368 1.00718 6.28141 2.8361C2.23076 4.80877 0 7.54073 0 10.5286V12.0239C0 14.9704 2.1705 17.6673 6.11494 19.6333C6.00551 20.0893 5.93493 20.6577 5.93493 21.0246V21.2974C2.10391 23.2554 0 25.9154 0 28.8168V30.3121C0 32.3268 1.01569 34.2248 2.91843 35.8527C2.66099 36.5407 2.52678 37.2506 2.52678 37.9761V39.4714C2.52678 42.4593 4.75754 45.1912 8.80819 47.1639C12.5636 48.9928 17.5277 50 22.7865 50C28.0452 50 33.0095 48.9928 36.7647 47.1639C40.8154 45.1912 43.0462 42.4593 43.0462 39.4714V37.9761C43.0462 35.9617 42.0314 34.064 40.1294 32.4364C40.3866 31.7482 40.5192 31.0377 40.5192 30.3121V30.0393C44.3503 28.0813 46.4542 25.4214 46.4542 22.5199V21.0245C46.4543 18.0816 44.2887 15.3874 40.3528 13.422ZM2.83132 9.26319C3.41808 7.77133 5.01627 6.32283 7.41143 5.15641C10.8218 3.49551 15.3847 2.58085 20.2597 2.58085C25.1347 2.58085 29.6977 3.49551 33.1079 5.15641C35.5032 6.32283 37.1013 7.77146 37.688 9.26319C35.6151 12.8689 28.413 15.498 20.2596 15.498C12.1061 15.498 4.90413 12.869 2.83132 9.26319ZM2.83132 27.5515C3.30839 26.3386 4.45739 25.1553 6.15662 24.128C6.81125 26.4803 8.90562 28.6001 12.2165 30.2125C15.9719 32.0414 20.936 33.0486 26.1947 33.0486C26.7087 33.0486 27.2191 33.0361 27.7266 33.0171C25.4308 33.5108 22.8955 33.7864 20.2598 33.7864C12.1064 33.7863 4.90413 31.1572 2.83132 27.5515ZM40.215 36.7107C38.142 40.3164 30.9399 42.9455 22.7865 42.9455C15.7036 42.9455 9.34243 40.9604 6.43445 38.0757C10.1714 39.8584 15.071 40.8407 20.2597 40.8407C25.5184 40.8407 30.4827 39.8335 34.238 38.0046C36.1837 37.0569 37.7082 35.9338 38.7685 34.6916C39.4528 35.3397 39.9435 36.0203 40.215 36.7107ZM26.1946 25.9942C19.0758 25.9942 12.6827 23.9899 9.79485 21.0814C12.9134 22.0381 16.5104 22.5525 20.2597 22.5525C25.5184 22.5525 30.4827 21.5453 34.238 19.7165C36.512 18.6091 38.2122 17.2623 39.2664 15.7654C41.5364 16.9119 43.0549 18.3149 43.6231 19.7594C41.5503 23.365 34.348 25.9942 26.1946 25.9942Z" fill="#A6AEBB"/>
</svg>
