<svg width="140" height="140" viewBox="0 0 140 140" fill="none" xmlns="http://www.w3.org/2000/svg">
<path opacity="0.05" fill-rule="evenodd" clip-rule="evenodd" d="M70 140C108.66 140 140 108.66 140 70C140 31.3401 108.66 0 70 0C31.3401 0 0 31.3401 0 70C0 108.66 31.3401 140 70 140Z" fill="#37C86F"/>
<path opacity="0.1" fill-rule="evenodd" clip-rule="evenodd" d="M70.0002 114.8C94.7426 114.8 114.8 94.7426 114.8 70.0002C114.8 45.2578 94.7426 25.2002 70.0002 25.2002C45.2578 25.2002 25.2002 45.2578 25.2002 70.0002C25.2002 94.7426 45.2578 114.8 70.0002 114.8Z" fill="#37C86F"/>
<path d="M50.9708 69.6452C49.8825 68.5556 48.1209 68.5504 47.0191 69.6508C45.9249 70.7436 45.929 72.5217 47.0207 73.6147L59.629 86.2391C60.724 87.3356 62.5062 87.3288 63.5889 86.2447L91.8231 57.9745C92.9151 56.8812 92.9209 55.1166 91.8191 54.0162C90.7249 52.9234 88.9466 52.9301 87.8531 54.0249L61.6117 80.2998L50.9708 69.6452Z" fill="#37C86F"/>
</svg>
