<svg width="20" height="21" viewBox="0 0 20 21" fill="none" xmlns="http://www.w3.org/2000/svg">
<path d="M5.33398 21C6.43855 21 7.33398 20.1046 7.33398 19C7.33398 17.8954 6.43855 17 5.33398 17C4.22941 17 3.33398 17.8954 3.33398 19C3.33398 20.1046 4.22941 21 5.33398 21Z" fill="#1F2D50"/>
<path d="M16.166 21C17.2706 21 18.166 20.1046 18.166 19C18.166 17.8954 17.2706 17 16.166 17C15.0614 17 14.166 17.8954 14.166 19C14.166 20.1046 15.0614 21 16.166 21Z" fill="#1F2D50"/>
<path d="M16.6662 15H4.99986C4.58238 15 4.22905 14.6726 4.17405 14.2341L2.6041 1.76471H0V0H3.33324C3.75073 0 4.10406 0.327353 4.15905 0.765882L4.61821 4.41176H19.1661C19.4295 4.41176 19.6778 4.54324 19.8345 4.76735C19.992 4.99147 20.0403 5.28088 19.9645 5.54735L17.4645 14.3709C17.3587 14.7441 17.0337 15 16.6662 15Z" fill="#1F2D50"/>
</svg>
