<svg width="26" height="25" viewBox="0 0 26 25" fill="none" xmlns="http://www.w3.org/2000/svg">
<path d="M12.6658 1.95801C18.4885 1.95801 23.208 6.67754 23.208 12.5003C23.208 16.6957 20.751 20.3075 17.2033 22.0042L16.8733 15.6283C16.8733 15.6283 17.494 15.4246 17.6299 15.3583C18.9463 14.7784 19.9026 13.071 19.9026 10.855C19.9026 8.4369 18.0273 6.35407 16.2143 6.33687C16.212 6.33687 16.212 6.33687 16.2104 6.33687C16.2097 6.33687 16.2081 6.33687 16.2074 6.33687C14.394 6.35401 12.5186 8.43683 12.5186 10.855C12.5186 13.071 13.4761 14.7777 14.7899 15.3583C14.8002 15.3628 15.5524 15.636 15.5524 15.636L15.1839 22.7253C14.3752 22.9243 13.5345 23.0411 12.6643 23.0411C11.4909 23.0411 10.3671 22.8412 9.31275 22.4879L8.9862 16.1701C9.84674 15.9808 10.5807 15.433 11.0408 14.7457C11.6107 13.8919 10.6021 6.33615 10.6021 6.33615H9.94596V13.4265H9.29436V6.33694H8.58177V13.4281H7.93327V6.33694H7.19394V13.4281H6.54321V6.33694H6.03969C6.03969 6.33694 5.03108 13.8927 5.6017 14.7464C6.05722 15.427 6.78433 15.9733 7.63416 16.167C7.6494 16.1724 7.66319 16.1777 7.66319 16.1777L7.37938 21.6122C4.2391 19.7864 2.12272 16.3944 2.12272 12.5004C2.1243 6.6776 6.84382 1.95801 12.6658 1.95801Z" fill="#ADB1B9"/>
<path d="M18.3603 9.78313C18.3225 9.62941 18.2718 9.48331 18.2695 9.48068C18.253 9.42309 18.2836 9.36432 18.3462 9.32696C18.4056 9.29492 18.4781 9.31133 18.5117 9.36281C18.5117 9.36281 18.5838 9.47766 18.6883 9.6474C18.7734 9.79351 18.8992 10.0269 18.9851 10.3176C19.0595 10.5724 19.1484 10.9112 19.1884 11.2903C19.2056 11.4895 19.2094 11.6692 19.2033 11.8541C19.1884 12.0651 19.1565 12.2455 19.0954 12.4519C18.8883 13.0405 18.7288 13.6105 18.1532 14.1727C17.9712 14.3597 17.7843 14.487 17.6493 14.5809L17.6016 14.6144C17.5726 14.6335 17.5447 14.6511 17.5173 14.6672C17.4039 14.7267 17.3281 14.748 17.3143 14.751C17.2579 14.7662 17.1998 14.7388 17.1759 14.693C17.1534 14.645 17.1698 14.5847 17.2167 14.5466C17.2167 14.5466 17.2823 14.4894 17.3666 14.3826C17.4242 14.3177 17.4867 14.2239 17.5596 14.1179C17.611 14.0431 17.6717 13.9584 17.7282 13.876C18.0086 13.448 18.1702 12.8506 18.3938 12.2387C18.4377 12.1059 18.4735 11.9339 18.4869 11.7878C18.5048 11.6191 18.5132 11.4567 18.5132 11.306C18.5197 10.9558 18.5041 10.6552 18.4735 10.4114C18.4385 10.1364 18.411 9.93003 18.3603 9.78313Z" fill="#ADB1B9"/>
<path d="M12.6663 0C19.5582 0 25.167 5.60758 25.167 12.5C25.167 19.3908 19.5582 25 12.6663 25C5.77463 25 0.16699 19.3908 0.16699 12.5C0.167057 5.60758 5.77463 0 12.6663 0ZM12.6663 24.0677C19.0452 24.0677 24.2351 18.8782 24.2351 12.5C24.2351 6.12102 19.0452 0.931128 12.6663 0.931128C6.28806 0.931128 1.09779 6.12102 1.09779 12.5C1.09785 18.8782 6.28812 24.0677 12.6663 24.0677Z" fill="#ADB1B9"/>
</svg>
