<svg width="30" height="30" viewBox="0 0 30 30" fill="none" xmlns="http://www.w3.org/2000/svg">
<path fill-rule="evenodd" clip-rule="evenodd" d="M15 30C23.2843 30 30 23.2843 30 15C30 6.71573 23.2843 0 15 0C6.71573 0 0 6.71573 0 15C0 23.2843 6.71573 30 15 30Z" fill="#F5F6F8"/>
<path fill-rule="evenodd" clip-rule="evenodd" d="M17 14H21V16H17.6C18.5 16.7 19 17.8 19 19C19 21.2 17.2 23 15 23C12.8 23 11 21.2 11 19C11 17.8 11.5 16.7 12.4 16H9V14H13V12.2C12.4 11.7 12 10.9 12 10C12 8.3 13.3 7 15 7C16.7 7 18 8.3 18 10C18 10.9 17.6 11.7 17 12.2V14ZM13 19C13 20.1 13.9 21 15 21C16.1 21 17 20.1 17 19C17 17.9 16.1 17 15 17C13.9 17 13 17.9 13 19Z" fill="#1B315F"/>
</svg>
