<svg width="30" height="18" viewBox="0 0 30 18" fill="none" xmlns="http://www.w3.org/2000/svg">
<path d="M27.3773 17.9994C27.1484 17.9994 26.9629 17.8118 26.9629 17.5803V0.419074C26.9629 0.187577 27.1484 0 27.3773 0C27.6062 0 27.7917 0.187577 27.7917 0.419074V17.5803C27.7917 17.8118 27.6062 17.9994 27.3773 17.9994Z" fill="url(#paint0_linear)"/>
<path d="M5.97887 17.9994C5.74994 17.9994 5.56445 17.8118 5.56445 17.5803V0.419074C5.56445 0.187577 5.74994 0 5.97887 0C6.20779 0 6.39328 0.187577 6.39328 0.419074V17.5803C6.39328 17.8118 6.20779 17.9994 5.97887 17.9994Z" fill="url(#paint1_linear)"/>
<path d="M15.2661 8.94209C13.8755 8.94209 12.7441 7.79802 12.7441 6.39194C12.7441 4.9857 13.8755 3.8418 15.2661 3.8418C16.6567 3.8418 17.7879 4.98587 17.7879 6.39194C17.7877 7.79802 16.6565 8.94209 15.2661 8.94209ZM15.2661 4.67978C14.3325 4.67978 13.573 5.44769 13.573 6.39178C13.573 7.33586 14.3325 8.10378 15.2661 8.10378C16.1997 8.10378 16.9591 7.3357 16.9591 6.39178C16.9589 5.44785 16.1995 4.67978 15.2661 4.67978Z" fill="url(#paint2_linear)"/>
<path d="M22.4194 14.1569C21.0288 14.1569 19.8975 13.0129 19.8975 11.6068C19.8975 10.2005 21.0288 9.05664 22.4194 9.05664C23.81 9.05664 24.9412 10.2007 24.9412 11.6068C24.9412 13.013 23.8098 14.1569 22.4194 14.1569ZM22.4194 9.89479C21.4858 9.89479 20.7263 10.6627 20.7263 11.6068C20.7263 12.5509 21.4858 13.3188 22.4194 13.3188C23.353 13.3188 24.1124 12.5509 24.1124 11.6068C24.1124 10.6627 23.353 9.89479 22.4194 9.89479Z" fill="url(#paint3_linear)"/>
<path d="M14.2114 14.1004C14.1053 14.1004 13.9994 14.0595 13.9183 13.9777C13.7564 13.8141 13.7564 13.5487 13.9183 13.3851L23.18 4.01931C23.3419 3.85554 23.6042 3.85554 23.7659 4.01931C23.9279 4.18292 23.9279 4.44828 23.7659 4.61189L14.5043 13.9777C14.4234 14.0595 14.3175 14.1004 14.2114 14.1004Z" fill="url(#paint4_linear)"/>
<path d="M29.5855 0H10.4154C10.1865 0 10.001 0.187577 10.001 0.419074C10.001 0.65057 10.1865 0.838147 10.4154 0.838147H29.1712V17.1612H10.4154C10.1865 17.1612 10.001 17.3488 10.001 17.5803C10.001 17.8118 10.1865 17.9994 10.4154 17.9994H29.5856C29.8145 17.9994 30 17.8118 30 17.5803V0.419074C29.9999 0.187577 29.8144 0 29.5855 0Z" fill="url(#paint5_linear)"/>
<path d="M8.19664 0C7.96772 0 7.78223 0.187577 7.78223 0.419074V1.08959C7.78223 1.32109 7.96772 1.50867 8.19664 1.50867C8.42556 1.50867 8.61105 1.32109 8.61105 1.08959V0.419074C8.61105 0.187577 8.42556 0 8.19664 0Z" fill="url(#paint6_linear)"/>
<path d="M8.19664 10.7949C7.96772 10.7949 7.78223 10.9825 7.78223 11.214V12.4796C7.78223 12.7111 7.96772 12.8987 8.19664 12.8987C8.42556 12.8987 8.61105 12.7111 8.61105 12.4796V11.214C8.61105 10.9825 8.42556 10.7949 8.19664 10.7949Z" fill="url(#paint7_linear)"/>
<path d="M8.19664 13.6426C7.96772 13.6426 7.78223 13.8302 7.78223 14.0617V15.3273C7.78223 15.5587 7.96772 15.7463 8.19664 15.7463C8.42556 15.7463 8.61105 15.5587 8.61105 15.3273V14.0617C8.61105 13.8302 8.42556 13.6426 8.19664 13.6426Z" fill="url(#paint8_linear)"/>
<path d="M8.19664 7.94727C7.96772 7.94727 7.78223 8.13484 7.78223 8.36634V9.63195C7.78223 9.86344 7.96772 10.051 8.19664 10.051C8.42556 10.051 8.61105 9.86344 8.61105 9.63195V8.36634C8.61105 8.13484 8.42556 7.94727 8.19664 7.94727Z" fill="url(#paint9_linear)"/>
<path d="M8.19664 5.09961C7.96772 5.09961 7.78223 5.28719 7.78223 5.51868V6.78428C7.78223 7.01578 7.96772 7.20336 8.19664 7.20336C8.42556 7.20336 8.61105 7.01578 8.61105 6.78428V5.51868C8.61105 5.28719 8.42556 5.09961 8.19664 5.09961Z" fill="url(#paint10_linear)"/>
<path d="M8.19664 2.25195C7.96772 2.25195 7.78223 2.43953 7.78223 2.67103V3.93663C7.78223 4.16813 7.96772 4.3557 8.19664 4.3557C8.42556 4.3557 8.61105 4.16813 8.61105 3.93663V2.67103C8.61105 2.4397 8.42556 2.25195 8.19664 2.25195Z" fill="url(#paint11_linear)"/>
<path d="M8.19664 16.4902C7.96772 16.4902 7.78223 16.6778 7.78223 16.9093V17.5798C7.78223 17.8113 7.96772 17.9989 8.19664 17.9989C8.42556 17.9989 8.61105 17.8113 8.61105 17.5798V16.9093C8.61105 16.6778 8.42556 16.4902 8.19664 16.4902Z" fill="url(#paint12_linear)"/>
<path d="M5.97865 0.838147C6.20757 0.838147 6.39306 0.65057 6.39306 0.419074C6.39306 0.187577 6.20757 0 5.97865 0H0.414413C0.185491 0 0 0.187577 0 0.419074V6.39188C0 6.62338 0.185491 6.81095 0.414413 6.81095C1.60776 6.81095 2.57881 7.79276 2.57881 8.99969C2.57881 10.2066 1.60792 11.1884 0.414413 11.1884C0.185491 11.1884 0 11.376 0 11.6075V17.5803C0 17.8118 0.185491 17.9994 0.414413 17.9994H5.97865C6.20757 17.9994 6.39306 17.8118 6.39306 17.5803C6.39306 17.3488 6.20757 17.1612 5.97865 17.1612H0.828825V11.9977C2.28375 11.7931 3.40763 10.5266 3.40763 8.99969C3.40763 7.47275 2.28391 6.20631 0.828825 6.00164V0.838147H5.97865Z" fill="url(#paint13_linear)"/>
<defs>
<linearGradient id="paint0_linear" x1="27.3773" y1="0" x2="27.3773" y2="17.9994" gradientUnits="userSpaceOnUse">
<stop stop-color="#1B315F"/>
<stop offset="1" stop-color="#4E628B"/>
</linearGradient>
<linearGradient id="paint1_linear" x1="5.97887" y1="0" x2="5.97887" y2="17.9994" gradientUnits="userSpaceOnUse">
<stop stop-color="#1B315F"/>
<stop offset="1" stop-color="#4E628B"/>
</linearGradient>
<linearGradient id="paint2_linear" x1="15.266" y1="3.8418" x2="15.266" y2="8.94209" gradientUnits="userSpaceOnUse">
<stop stop-color="#1B315F"/>
<stop offset="1" stop-color="#4E628B"/>
</linearGradient>
<linearGradient id="paint3_linear" x1="22.4193" y1="9.05664" x2="22.4193" y2="14.1569" gradientUnits="userSpaceOnUse">
<stop stop-color="#1B315F"/>
<stop offset="1" stop-color="#4E628B"/>
</linearGradient>
<linearGradient id="paint4_linear" x1="18.8421" y1="3.89648" x2="18.8421" y2="14.1004" gradientUnits="userSpaceOnUse">
<stop stop-color="#1B315F"/>
<stop offset="1" stop-color="#4E628B"/>
</linearGradient>
<linearGradient id="paint5_linear" x1="20.0005" y1="0" x2="20.0005" y2="17.9994" gradientUnits="userSpaceOnUse">
<stop stop-color="#1B315F"/>
<stop offset="1" stop-color="#4E628B"/>
</linearGradient>
<linearGradient id="paint6_linear" x1="8.19664" y1="0" x2="8.19664" y2="1.50867" gradientUnits="userSpaceOnUse">
<stop stop-color="#1B315F"/>
<stop offset="1" stop-color="#4E628B"/>
</linearGradient>
<linearGradient id="paint7_linear" x1="8.19664" y1="10.7949" x2="8.19664" y2="12.8987" gradientUnits="userSpaceOnUse">
<stop stop-color="#1B315F"/>
<stop offset="1" stop-color="#4E628B"/>
</linearGradient>
<linearGradient id="paint8_linear" x1="8.19664" y1="13.6426" x2="8.19664" y2="15.7463" gradientUnits="userSpaceOnUse">
<stop stop-color="#1B315F"/>
<stop offset="1" stop-color="#4E628B"/>
</linearGradient>
<linearGradient id="paint9_linear" x1="8.19664" y1="7.94727" x2="8.19664" y2="10.051" gradientUnits="userSpaceOnUse">
<stop stop-color="#1B315F"/>
<stop offset="1" stop-color="#4E628B"/>
</linearGradient>
<linearGradient id="paint10_linear" x1="8.19664" y1="5.09961" x2="8.19664" y2="7.20336" gradientUnits="userSpaceOnUse">
<stop stop-color="#1B315F"/>
<stop offset="1" stop-color="#4E628B"/>
</linearGradient>
<linearGradient id="paint11_linear" x1="8.19664" y1="2.25195" x2="8.19664" y2="4.3557" gradientUnits="userSpaceOnUse">
<stop stop-color="#1B315F"/>
<stop offset="1" stop-color="#4E628B"/>
</linearGradient>
<linearGradient id="paint12_linear" x1="8.19664" y1="16.4902" x2="8.19664" y2="17.9989" gradientUnits="userSpaceOnUse">
<stop stop-color="#1B315F"/>
<stop offset="1" stop-color="#4E628B"/>
</linearGradient>
<linearGradient id="paint13_linear" x1="3.19653" y1="0" x2="3.19653" y2="17.9994" gradientUnits="userSpaceOnUse">
<stop stop-color="#1B315F"/>
<stop offset="1" stop-color="#4E628B"/>
</linearGradient>
</defs>
</svg>
