<svg width="124" height="105" viewBox="0 0 124 105" fill="none" xmlns="http://www.w3.org/2000/svg">
<path d="M114.298 50.6363C114.307 50.5503 114.312 50.4632 114.312 50.3748V36.0857V17.4373V9.98684C114.312 4.48023 109.832 0 104.326 0H67.2475C65.9099 0 64.8256 1.08427 64.8256 2.42188C64.8256 3.75948 65.9099 4.84375 67.2475 4.84375H104.326C107.162 4.84375 109.469 7.15083 109.469 9.98684V15.0156H4.84375V9.98684C4.84375 7.15083 7.15083 4.84375 9.98684 4.84375H46.9844C48.322 4.84375 49.4062 3.75948 49.4062 2.42188C49.4062 1.08427 48.322 0 46.9844 0H9.98684C4.48023 0 0 4.48023 0 9.98684V17.4375V36.0859V71.3961C0 76.9028 4.48023 81.3828 9.98684 81.3828H63.1245C65.7578 90.8637 72.8292 98.7762 82.3411 102.259C82.616 102.36 82.8971 102.407 83.1737 102.407C84.1614 102.407 85.0889 101.799 85.4481 100.818C85.908 99.5613 85.2626 98.1705 84.0066 97.7105C73.741 93.9518 66.8438 84.0778 66.8438 73.1406C66.8438 58.7181 78.5775 46.9844 93 46.9844C107.423 46.9844 119.156 58.7181 119.156 73.1406C119.156 83.8942 112.708 93.4282 102.727 97.4291C101.486 97.9268 100.883 99.3366 101.381 100.578C101.878 101.82 103.288 102.423 104.53 101.925C110.211 99.6473 115.057 95.7699 118.543 90.7121C122.113 85.5309 124 79.4549 124 73.1406C124 64.2877 120.269 56.2904 114.298 50.6363ZM109.469 46.8887C104.694 43.8827 99.0469 42.1406 93 42.1406C75.9064 42.1406 62 56.047 62 73.1406C62 74.285 62.0671 75.4186 62.1916 76.539H9.98684C7.15107 76.539 4.84375 74.2319 4.84375 71.3961V38.5078H109.469V46.8887ZM109.469 33.6641H4.84375V19.8594H109.469V33.6641Z" fill="#162A4C"/>
<path d="M94.7123 100.006C94.2618 99.556 93.637 99.2969 93 99.2969C92.363 99.2969 91.7382 99.556 91.2877 100.006C90.8373 100.457 90.5781 101.082 90.5781 101.719C90.5781 102.356 90.8373 102.981 91.2877 103.431C91.7382 103.881 92.363 104.141 93 104.141C93.637 104.141 94.2618 103.881 94.7123 103.431C95.1627 102.981 95.4219 102.356 95.4219 101.719C95.4219 101.082 95.1627 100.457 94.7123 100.006Z" fill="#162A4C"/>
<path d="M81 75.8703L88.2 83.0703L106.2 65.0703" stroke="#37C86F" stroke-width="5" stroke-miterlimit="10" stroke-linecap="round" stroke-linejoin="round"/>
<path d="M59.4354 0.709609C58.9825 0.259141 58.3601 0 57.7207 0C57.0838 0 56.4589 0.259141 56.0084 0.709609C55.558 1.16008 55.2988 1.78492 55.2988 2.42188C55.2988 3.05883 55.558 3.68367 56.0084 4.13414C56.4589 4.58461 57.0838 4.84375 57.7207 4.84375C58.3601 4.84375 58.9825 4.58461 59.4354 4.13414C59.8859 3.68367 60.1426 3.05883 60.1426 2.42188C60.1426 1.78492 59.8859 1.16008 59.4354 0.709609Z" fill="black"/>
</svg>
