<svg width="25" height="25" viewBox="0 0 25 25" fill="none" xmlns="http://www.w3.org/2000/svg">
<g clip-path="url(#clip0)">
<path d="M12.4215 0.772461C18.8245 0.772461 24.1172 5.97407 24.1172 12.3771C24.1172 18.7801 18.8245 24.0728 12.4215 24.0728C6.01859 24.0728 0.816896 18.7801 0.816896 12.3771C0.816896 5.97407 6.01859 0.772461 12.4215 0.772461Z" fill="#FEDB41"/>
<path d="M0.817238 12.3771C0.817238 18.7801 6.01894 24.0728 12.4219 24.0728V0.772461C6.01894 0.772461 0.817238 5.97407 0.817238 12.3771Z" fill="#FFCC33"/>
<path d="M12.4216 3.50293C17.3093 3.50293 21.3867 7.48942 21.3867 12.3771C21.3867 17.2647 17.3093 21.3422 12.4216 21.3422C7.53388 21.3422 3.54743 17.2647 3.54743 12.3771C3.54743 7.48942 7.53388 3.50293 12.4216 3.50293Z" fill="#FEA832"/>
<path d="M3.54774 12.3771C3.54774 17.2647 7.53418 21.3422 12.4219 21.3422V3.50293C7.53418 3.50293 3.54774 7.48942 3.54774 12.3771Z" fill="#FE9923"/>
<path d="M11.0564 11.6944H11.739V8.9639H11.0564C10.6741 8.9639 10.3738 9.26421 10.3738 9.64653C10.3738 10.5475 9.00851 10.5475 9.00851 9.64653C9.00851 8.51332 9.92313 7.59865 11.0564 7.59865H11.739V6.91602C11.739 6.46545 12.0803 6.2334 12.4216 6.2334C12.7629 6.2334 13.1043 6.46545 13.1043 6.91602V7.59865H13.8779C15.0112 7.59865 15.9258 8.51332 15.9258 9.64653V11.0118C15.9258 12.145 15.0112 13.0597 13.8779 13.0597H13.1043V15.8812H13.8779C14.2602 15.8812 14.5605 15.5809 14.5605 15.1985C14.5605 14.2975 15.9258 14.2975 15.9258 15.1985C15.9258 16.3318 15.0112 17.2464 13.8779 17.2464H13.1043V17.9291C13.1043 18.3796 12.7629 18.6117 12.4216 18.6117C12.0803 18.6117 11.739 18.3796 11.739 17.9291V17.2464H11.0564C9.92313 17.2464 9.00851 16.3318 9.00851 15.1985V13.7423C9.00851 12.6091 9.92313 11.6944 11.0564 11.6944ZM13.1043 11.6944H13.8779C14.2602 11.6944 14.5605 11.3941 14.5605 11.0118V9.64653C14.5605 9.26421 14.2602 8.9639 13.8779 8.9639H13.1043V11.6944ZM10.3738 15.1985C10.3738 15.5809 10.6741 15.8812 11.0564 15.8812H11.739V13.0597H11.0564C10.6741 13.0597 10.3738 13.36 10.3738 13.7423V15.1985Z" fill="#FEDB41"/>
<path d="M11.0566 11.6944H11.7392V8.9639H11.0566C10.6743 8.9639 10.374 9.26421 10.374 9.64653C10.374 10.5475 9.00875 10.5475 9.00875 9.64653C9.00875 8.51332 9.92337 7.59865 11.0566 7.59865H11.7392V6.91602C11.7392 6.46545 12.0806 6.2334 12.4219 6.2334V18.6117C12.0806 18.6117 11.7392 18.3796 11.7392 17.9291V17.2464H11.0566C9.92337 17.2464 9.00875 16.3318 9.00875 15.1985V13.7423C9.00875 12.6091 9.92337 11.6944 11.0566 11.6944ZM10.374 15.1985C10.374 15.5809 10.6743 15.8812 11.0566 15.8812H11.7392V13.0597H11.0566C10.6743 13.0597 10.374 13.36 10.374 13.7423V15.1985Z" fill="#FFCC33"/>
</g>
<defs>
<clipPath id="clip0">
<rect width="23.3003" height="23.3003" fill="white" transform="matrix(-1 0 0 1 24.1172 0.772461)"/>
</clipPath>
</defs>
</svg>
