<svg width="19" height="20" viewBox="0 0 19 20" fill="none" xmlns="http://www.w3.org/2000/svg">
<path d="M9.4629 0C14.6841 0 19 4.37423 19 9.75878C19 15.1433 14.6841 19.5941 9.4629 19.5941C4.24168 19.5941 9.53674e-06 15.1433 9.53674e-06 9.75878C9.53674e-06 4.37423 4.24168 0 9.4629 0Z" fill="#FEDB41"/>
<path d="M0.00195789 9.75878C0.00195789 15.1433 4.24363 19.5941 9.46484 19.5941V0C4.24363 0 0.00195789 4.37423 0.00195789 9.75878Z" fill="#FFCC33"/>
<path d="M9.46485 2.29639C13.4505 2.29639 16.7754 5.64878 16.7754 9.75898C16.7754 13.8692 13.4505 17.2981 9.46485 17.2981C5.47923 17.2981 2.22852 13.8692 2.22852 9.75898C2.22852 5.64878 5.47923 2.29639 9.46485 2.29639Z" fill="#FEA832"/>
<path d="M2.22852 9.75898C2.22852 13.8692 5.47922 17.2981 9.46484 17.2981V2.29639C5.47922 2.29639 2.22852 5.64878 2.22852 9.75898Z" fill="#EA8333"/>
<path d="M8.34961 9.18465H8.90625V6.88847H8.34961C8.03786 6.88847 7.79297 7.14101 7.79297 7.46251C7.79297 8.22022 6.67969 8.22022 6.67969 7.46251C6.67969 6.50956 7.42551 5.74038 8.34961 5.74038H8.90625V5.16633C8.90625 4.78742 9.18457 4.59229 9.46289 4.59229C9.74121 4.59229 10.0195 4.78742 10.0195 5.16633V5.74038H10.6504C11.5745 5.74038 12.3203 6.50956 12.3203 7.46251V8.61061C12.3203 9.56356 11.5745 10.3327 10.6504 10.3327H10.0195V12.7055H10.6504C10.9621 12.7055 11.207 12.4529 11.207 12.1314C11.207 11.3737 12.3203 11.3737 12.3203 12.1314C12.3203 13.0844 11.5745 13.8536 10.6504 13.8536H10.0195V14.4276C10.0195 14.8065 9.74121 15.0016 9.46289 15.0016C9.18457 15.0016 8.90625 14.8065 8.90625 14.4276V13.8536H8.34961C7.42551 13.8536 6.67969 13.0844 6.67969 12.1314V10.9068C6.67969 9.95383 7.42551 9.18465 8.34961 9.18465ZM10.0195 9.18465H10.6504C10.9621 9.18465 11.207 8.93211 11.207 8.61061V7.46251C11.207 7.14101 10.9621 6.88847 10.6504 6.88847H10.0195V9.18465ZM7.79297 12.1314C7.79297 12.4529 8.03786 12.7055 8.34961 12.7055H8.90625V10.3327H8.34961C8.03786 10.3327 7.79297 10.5853 7.79297 10.9068V12.1314Z" fill="#FEDB41"/>
<path d="M8.35156 9.18465H8.9082V6.88847H8.35156C8.03981 6.88847 7.79492 7.14101 7.79492 7.46251C7.79492 8.22022 6.68164 8.22022 6.68164 7.46251C6.68164 6.50956 7.42747 5.74038 8.35156 5.74038H8.9082V5.16633C8.9082 4.78742 9.18652 4.59229 9.46484 4.59229V15.0016C9.18652 15.0016 8.9082 14.8065 8.9082 14.4276V13.8536H8.35156C7.42747 13.8536 6.68164 13.0844 6.68164 12.1314V10.9068C6.68164 9.95383 7.42747 9.18465 8.35156 9.18465ZM7.79492 12.1314C7.79492 12.4529 8.03981 12.7055 8.35156 12.7055H8.9082V10.3327H8.35156C8.03981 10.3327 7.79492 10.5853 7.79492 10.9068V12.1314Z" fill="#FFCC33"/>
</svg>
