<svg width="36" height="36" viewBox="0 0 36 36" fill="none" xmlns="http://www.w3.org/2000/svg">
<rect x="0.5" y="0.5" width="35" height="35" rx="17.5" stroke="#1B315F"/>
<path d="M26 13C25.4 13.3 24.8 13.4 24.1 13.5C24.8 13.1 25.3 12.5 25.5 11.7C24.9 12.1 24.2 12.3 23.4 12.5C22.8 11.9 21.9 11.5 21 11.5C19.3 11.5 17.8 13 17.8 14.8C17.8 15.1 17.8 15.3 17.9 15.5C15.2 15.4 12.7 14.1 11.1 12.1C10.8 12.6 10.7 13.1 10.7 13.8C10.7 14.9 11.3 15.9 12.2 16.5C11.7 16.5 11.2 16.3 10.7 16.1C10.7 17.7 11.8 19 13.3 19.3C13 19.4 12.7 19.4 12.4 19.4C12.2 19.4 12 19.4 11.8 19.3C12.2 20.6 13.4 21.6 14.9 21.6C13.8 22.5 12.4 23 10.8 23C10.5 23 10.3 23 10 23C11.5 23.9 13.2 24.5 15 24.5C21 24.5 24.3 19.5 24.3 15.2C24.3 15.1 24.3 14.9 24.3 14.8C25 14.3 25.6 13.7 26 13Z" fill="#1B315F"/>
</svg>
